# Blender v2.79 (sub 0) OBJ File: ''
# www.blender.org
mtllib 10.mtl
o Text
v 0.442175 0.000003 -0.003841
v 0.440367 0.000003 -0.054843
v 0.435045 0.000003 -0.102684
v 0.426362 0.000003 -0.147123
v 0.414471 0.000003 -0.187916
v 0.399524 0.000003 -0.224819
v 0.381675 0.000003 -0.257591
v 0.361075 0.000003 -0.285989
v 0.337878 0.000003 -0.309767
v 0.312237 0.000003 -0.328685
v 0.284304 0.000003 -0.342499
v 0.254233 0.000003 -0.350965
v 0.222175 0.000003 -0.353841
v 0.190117 0.000003 -0.350965
v 0.160045 0.000003 -0.342499
v 0.132112 0.000003 -0.328685
v 0.106471 0.000003 -0.309767
v 0.083274 0.000003 -0.285989
v 0.062675 0.000003 -0.257592
v 0.044825 0.000003 -0.224820
v 0.029878 0.000003 -0.187916
v 0.017987 0.000003 -0.147123
v 0.009304 0.000003 -0.102684
v 0.003983 0.000003 -0.054843
v 0.002175 0.000003 -0.003841
v 0.003982 0.000003 0.047160
v 0.009304 0.000003 0.095001
v 0.017987 0.000003 0.139440
v 0.029878 0.000003 0.180233
v 0.044825 0.000003 0.217137
v 0.062675 0.000003 0.249909
v 0.083274 0.000003 0.278306
v 0.106471 0.000003 0.302084
v 0.132112 0.000003 0.321002
v 0.160045 0.000003 0.334816
v 0.190117 0.000003 0.343282
v 0.222175 0.000003 0.346159
v 0.254233 0.000003 0.343282
v 0.284304 0.000003 0.334816
v 0.312237 0.000003 0.321002
v 0.337878 0.000003 0.302084
v 0.361075 0.000003 0.278306
v 0.381675 0.000003 0.249909
v 0.399524 0.000003 0.217137
v 0.414471 0.000003 0.180233
v 0.426362 0.000003 0.139440
v 0.435045 0.000003 0.095001
v 0.440367 0.000003 0.047160
v 0.344175 0.000003 -0.003841
v 0.343226 0.000003 0.034826
v 0.340415 0.000003 0.070751
v 0.335800 0.000003 0.103815
v 0.329434 0.000003 0.133899
v 0.321374 0.000003 0.160887
v 0.311675 0.000003 0.184659
v 0.300392 0.000003 0.205097
v 0.287582 0.000003 0.222084
v 0.273300 0.000003 0.235502
v 0.257601 0.000003 0.245233
v 0.240541 0.000003 0.251157
v 0.222175 0.000003 0.253159
v 0.203809 0.000003 0.251157
v 0.186749 0.000003 0.245233
v 0.171050 0.000003 0.235502
v 0.156767 0.000003 0.222084
v 0.143957 0.000003 0.205097
v 0.132675 0.000003 0.184659
v 0.122976 0.000003 0.160887
v 0.114915 0.000003 0.133899
v 0.108550 0.000003 0.103815
v 0.103934 0.000003 0.070751
v 0.101124 0.000003 0.034826
v 0.100175 0.000003 -0.003841
v 0.101124 0.000003 -0.042509
v 0.103934 0.000003 -0.078434
v 0.108550 0.000003 -0.111498
v 0.114915 0.000003 -0.141582
v 0.122976 0.000003 -0.168569
v 0.132675 0.000003 -0.192341
v 0.143957 0.000003 -0.212780
v 0.156767 0.000003 -0.229767
v 0.171050 0.000003 -0.243185
v 0.186749 0.000003 -0.252916
v 0.203809 0.000003 -0.258840
v 0.222175 0.000003 -0.260841
v 0.240540 0.000003 -0.258840
v 0.257601 0.000003 -0.252916
v 0.273300 0.000003 -0.243185
v 0.287582 0.000003 -0.229767
v 0.300392 0.000003 -0.212780
v 0.311675 0.000003 -0.192341
v 0.321374 0.000003 -0.168569
v 0.329434 0.000003 -0.141582
v 0.335800 0.000003 -0.111498
v 0.340415 0.000003 -0.078434
v 0.343225 0.000003 -0.042509
v -0.227825 0.000003 -0.344841
v -0.325825 0.000003 -0.344841
v -0.325825 0.000003 0.337159
v -0.227825 0.000003 0.337159
vn 0.0000 1.0000 0.0000
usemtl None
s off
f 14//1 12//1 13//1
f 14//1 11//1 12//1
f 15//1 11//1 14//1
f 15//1 10//1 11//1
f 16//1 10//1 15//1
f 16//1 9//1 10//1
f 17//1 9//1 16//1
f 18//1 9//1 17//1
f 18//1 8//1 9//1
f 19//1 8//1 18//1
f 19//1 85//1 8//1
f 85//1 7//1 8//1
f 19//1 84//1 85//1
f 86//1 7//1 85//1
f 19//1 83//1 84//1
f 87//1 7//1 86//1
f 20//1 83//1 19//1
f 87//1 6//1 7//1
f 20//1 82//1 83//1
f 88//1 6//1 87//1
f 20//1 81//1 82//1
f 89//1 6//1 88//1
f 20//1 80//1 81//1
f 90//1 6//1 89//1
f 21//1 80//1 20//1
f 90//1 5//1 6//1
f 21//1 79//1 80//1
f 91//1 5//1 90//1
f 21//1 78//1 79//1
f 92//1 5//1 91//1
f 22//1 78//1 21//1
f 92//1 4//1 5//1
f 22//1 77//1 78//1
f 93//1 4//1 92//1
f 23//1 77//1 22//1
f 93//1 3//1 4//1
f 23//1 76//1 77//1
f 94//1 3//1 93//1
f 23//1 75//1 76//1
f 95//1 3//1 94//1
f 24//1 75//1 23//1
f 95//1 2//1 3//1
f 24//1 74//1 75//1
f 96//1 2//1 95//1
f 25//1 74//1 24//1
f 96//1 1//1 2//1
f 25//1 73//1 74//1
f 49//1 1//1 96//1
f 26//1 73//1 25//1
f 26//1 72//1 73//1
f 50//1 1//1 49//1
f 50//1 48//1 1//1
f 26//1 71//1 72//1
f 51//1 48//1 50//1
f 27//1 71//1 26//1
f 51//1 47//1 48//1
f 27//1 70//1 71//1
f 52//1 47//1 51//1
f 28//1 70//1 27//1
f 52//1 46//1 47//1
f 53//1 46//1 52//1
f 28//1 69//1 70//1
f 54//1 46//1 53//1
f 28//1 68//1 69//1
f 29//1 68//1 28//1
f 54//1 45//1 46//1
f 55//1 45//1 54//1
f 29//1 67//1 68//1
f 30//1 67//1 29//1
f 55//1 44//1 45//1
f 56//1 44//1 55//1
f 30//1 66//1 67//1
f 57//1 44//1 56//1
f 30//1 65//1 66//1
f 31//1 65//1 30//1
f 57//1 43//1 44//1
f 58//1 43//1 57//1
f 31//1 64//1 65//1
f 59//1 43//1 58//1
f 31//1 63//1 64//1
f 60//1 43//1 59//1
f 31//1 62//1 63//1
f 32//1 62//1 31//1
f 60//1 42//1 43//1
f 61//1 42//1 60//1
f 32//1 61//1 62//1
f 32//1 42//1 61//1
f 33//1 42//1 32//1
f 33//1 41//1 42//1
f 34//1 41//1 33//1
f 34//1 40//1 41//1
f 35//1 40//1 34//1
f 35//1 39//1 40//1
f 36//1 39//1 35//1
f 36//1 38//1 39//1
f 37//1 38//1 36//1
f 99//1 97//1 98//1
f 99//1 100//1 97//1
o Circle.002
v -0.582103 0.000000 -0.571641
v -0.717569 0.000000 -0.707107
v -0.841932 0.000000 -0.555570
v -0.934341 0.000000 -0.382683
v -0.991247 0.000000 -0.195090
v -1.010462 0.000000 0.000000
v -0.991247 -0.000000 0.195090
v -0.803351 -0.000000 0.157715
v -0.818884 0.000000 0.000000
v -0.803351 0.000000 -0.157715
v -0.757347 0.000000 -0.309370
v -0.682640 0.000000 -0.449135
v -0.934341 -0.000000 0.382683
v -0.841932 -0.000000 0.555570
v -0.717569 -0.000000 0.707107
v -0.566032 -0.000000 0.831470
v -0.393145 -0.000000 0.923880
v -0.205552 -0.000000 0.980785
v -0.010462 -0.000000 1.000000
v 0.184629 -0.000000 0.980785
v 0.372222 -0.000000 0.923879
v 0.298908 -0.000000 0.746885
v 0.147254 -0.000000 0.792889
v -0.010462 -0.000000 0.808422
v -0.168177 -0.000000 0.792889
v -0.319832 -0.000000 0.746885
v -0.459597 -0.000000 0.672179
v -0.582103 -0.000000 0.571641
v -0.682640 -0.000000 0.449135
v -0.757347 -0.000000 0.309370
v 0.545109 -0.000000 0.831469
v 0.696645 -0.000000 0.707106
v 0.821008 -0.000000 0.555570
v 0.913418 -0.000000 0.382683
v 0.970324 -0.000000 0.195089
v 0.989538 0.000000 -0.000001
v 0.970323 0.000000 -0.195091
v 0.913417 0.000000 -0.382684
v 0.821007 0.000000 -0.555571
v 0.661716 0.000000 -0.449136
v 0.736422 0.000000 -0.309371
v 0.782427 0.000000 -0.157716
v 0.797960 0.000000 -0.000001
v 0.782427 -0.000000 0.157715
v 0.736423 -0.000000 0.309369
v 0.661717 -0.000000 0.449135
v 0.561179 -0.000000 0.571640
v 0.438674 -0.000000 0.672178
v 0.696644 0.000000 -0.707108
v 0.545107 0.000000 -0.831470
v 0.372220 0.000000 -0.923880
v 0.184627 0.000000 -0.980786
v -0.010462 0.000000 -1.000000
v -0.205552 0.000000 -0.980785
v -0.393145 0.000000 -0.923880
v -0.566032 0.000000 -0.831470
v -0.459597 0.000000 -0.672179
v -0.319832 0.000000 -0.746885
v -0.168177 0.000000 -0.792889
v -0.010462 0.000000 -0.808422
v 0.147252 0.000000 -0.792889
v 0.298907 0.000000 -0.746885
v 0.438672 0.000000 -0.672179
v 0.561178 0.000000 -0.571642
vn -0.0000 1.0000 0.0000
usemtl None.001
s 1
f 101//2 102//2 103//2 104//2 105//2 106//2 107//2 108//2 109//2 110//2 111//2 112//2
f 108//2 107//2 113//2 114//2 115//2 116//2 117//2 118//2 119//2 120//2 121//2 122//2 123//2 124//2 125//2 126//2 127//2 128//2 129//2 130//2
f 122//2 121//2 131//2 132//2 133//2 134//2 135//2 136//2 137//2 138//2 139//2 140//2 141//2 142//2 143//2 144//2 145//2 146//2 147//2 148//2
f 140//2 139//2 149//2 150//2 151//2 152//2 153//2 154//2 155//2 156//2 102//2 101//2 157//2 158//2 159//2 160//2 161//2 162//2 163//2 164//2
o Circle.001
v -0.582103 0.000000 -0.571641
v -0.682640 0.000000 -0.449135
v -0.757347 0.000000 -0.309370
v -0.803351 0.000000 -0.157715
v -0.818884 0.000000 0.000000
v -0.803351 -0.000000 0.157715
v -0.991247 -0.000000 0.195090
v -1.010462 0.000000 0.000000
v -0.991247 0.000000 -0.195090
v -0.934341 0.000000 -0.382683
v -0.841932 0.000000 -0.555570
v -0.717569 0.000000 -0.707107
v -0.757347 -0.000000 0.309370
v -0.682640 -0.000000 0.449135
v -0.582103 -0.000000 0.571641
v -0.459597 -0.000000 0.672179
v -0.319832 -0.000000 0.746885
v -0.168177 -0.000000 0.792889
v -0.010462 -0.000000 0.808422
v 0.147254 -0.000000 0.792889
v 0.298908 -0.000000 0.746885
v 0.372222 -0.000000 0.923879
v 0.184629 -0.000000 0.980785
v -0.010462 -0.000000 1.000000
v -0.205552 -0.000000 0.980785
v -0.393145 -0.000000 0.923880
v -0.566032 -0.000000 0.831470
v -0.717569 -0.000000 0.707107
v -0.841932 -0.000000 0.555570
v -0.934341 -0.000000 0.382683
v 0.438674 -0.000000 0.672178
v 0.561179 -0.000000 0.571640
v 0.661717 -0.000000 0.449135
v 0.736423 -0.000000 0.309369
v 0.782427 -0.000000 0.157715
v 0.797960 0.000000 -0.000001
v 0.782427 0.000000 -0.157716
v 0.736422 0.000000 -0.309371
v 0.661716 0.000000 -0.449136
v 0.821007 0.000000 -0.555571
v 0.913417 0.000000 -0.382684
v 0.970323 0.000000 -0.195091
v 0.989538 0.000000 -0.000001
v 0.970324 -0.000000 0.195089
v 0.913418 -0.000000 0.382683
v 0.821008 -0.000000 0.555570
v 0.696645 -0.000000 0.707106
v 0.545109 -0.000000 0.831469
v 0.561178 0.000000 -0.571642
v 0.438672 0.000000 -0.672179
v 0.298907 0.000000 -0.746885
v 0.147252 0.000000 -0.792889
v -0.010462 0.000000 -0.808422
v -0.168177 0.000000 -0.792889
v -0.319832 0.000000 -0.746885
v -0.459597 0.000000 -0.672179
v -0.566032 0.000000 -0.831470
v -0.393145 0.000000 -0.923880
v -0.205552 0.000000 -0.980785
v -0.010462 0.000000 -1.000000
v 0.184627 0.000000 -0.980786
v 0.372220 0.000000 -0.923880
v 0.545107 0.000000 -0.831470
v 0.696644 0.000000 -0.707108
vn -0.0000 1.0000 0.0000
usemtl None
s 1
f 165//3 176//3 175//3 174//3 173//3 172//3 171//3 170//3 169//3 168//3 167//3 166//3
f 170//3 171//3 194//3 193//3 192//3 191//3 190//3 189//3 188//3 187//3 186//3 185//3 184//3 183//3 182//3 181//3 180//3 179//3 178//3 177//3
f 185//3 186//3 212//3 211//3 210//3 209//3 208//3 207//3 206//3 205//3 204//3 203//3 202//3 201//3 200//3 199//3 198//3 197//3 196//3 195//3
f 203//3 204//3 228//3 227//3 226//3 225//3 224//3 223//3 222//3 221//3 176//3 165//3 220//3 219//3 218//3 217//3 216//3 215//3 214//3 213//3
