# Blender v2.79 (sub 0) OBJ File: ''
# www.blender.org
mtllib 20.mtl
o Circle.001
v -0.582103 0.000000 -0.571641
v -0.682640 0.000000 -0.449135
v -0.757347 0.000000 -0.309370
v -0.803351 0.000000 -0.157715
v -0.818884 0.000000 0.000000
v -0.803351 -0.000000 0.157715
v -0.991247 -0.000000 0.195090
v -1.010462 0.000000 0.000000
v -0.991247 0.000000 -0.195090
v -0.934341 0.000000 -0.382683
v -0.841932 0.000000 -0.555570
v -0.717569 0.000000 -0.707107
v -0.757347 -0.000000 0.309370
v -0.682640 -0.000000 0.449135
v -0.582103 -0.000000 0.571641
v -0.459597 -0.000000 0.672179
v -0.319832 -0.000000 0.746885
v -0.168177 -0.000000 0.792889
v -0.010462 -0.000000 0.808422
v 0.147254 -0.000000 0.792889
v 0.298908 -0.000000 0.746885
v 0.372222 -0.000000 0.923879
v 0.184629 -0.000000 0.980785
v -0.010462 -0.000000 1.000000
v -0.205552 -0.000000 0.980785
v -0.393145 -0.000000 0.923880
v -0.566032 -0.000000 0.831470
v -0.717569 -0.000000 0.707107
v -0.841932 -0.000000 0.555570
v -0.934341 -0.000000 0.382683
v 0.438674 -0.000000 0.672178
v 0.561179 -0.000000 0.571640
v 0.661717 -0.000000 0.449135
v 0.736423 -0.000000 0.309369
v 0.782427 -0.000000 0.157715
v 0.797960 0.000000 -0.000001
v 0.782427 0.000000 -0.157716
v 0.736422 0.000000 -0.309371
v 0.661716 0.000000 -0.449136
v 0.821007 0.000000 -0.555571
v 0.913417 0.000000 -0.382684
v 0.970323 0.000000 -0.195091
v 0.989538 0.000000 -0.000001
v 0.970324 -0.000000 0.195089
v 0.913418 -0.000000 0.382683
v 0.821008 -0.000000 0.555570
v 0.696645 -0.000000 0.707106
v 0.545109 -0.000000 0.831469
v 0.561178 0.000000 -0.571642
v 0.438672 0.000000 -0.672179
v 0.298907 0.000000 -0.746885
v 0.147252 0.000000 -0.792889
v -0.010462 0.000000 -0.808422
v -0.168177 0.000000 -0.792889
v -0.319832 0.000000 -0.746885
v -0.459597 0.000000 -0.672179
v -0.566032 0.000000 -0.831470
v -0.393145 0.000000 -0.923880
v -0.205552 0.000000 -0.980785
v -0.010462 0.000000 -1.000000
v 0.184627 0.000000 -0.980786
v 0.372220 0.000000 -0.923880
v 0.545107 0.000000 -0.831470
v 0.696644 0.000000 -0.707108
vn -0.0000 1.0000 0.0000
usemtl None
s 1
f 1//1 12//1 11//1 10//1 9//1 8//1 7//1 6//1 5//1 4//1 3//1 2//1
f 6//1 7//1 30//1 29//1 28//1 27//1 26//1 25//1 24//1 23//1 22//1 21//1 20//1 19//1 18//1 17//1 16//1 15//1 14//1 13//1
f 21//1 22//1 48//1 47//1 46//1 45//1 44//1 43//1 42//1 41//1 40//1 39//1 38//1 37//1 36//1 35//1 34//1 33//1 32//1 31//1
f 39//1 40//1 64//1 63//1 62//1 61//1 60//1 59//1 58//1 57//1 12//1 1//1 56//1 55//1 54//1 53//1 52//1 51//1 50//1 49//1
o Text
v 0.230200 0.000000 -0.371170
v 0.294316 0.000000 -0.371171
v 0.262258 0.000000 -0.374047
v 0.324388 0.000000 -0.362704
v 0.200129 0.000000 -0.362704
v 0.352321 0.000000 -0.348890
v 0.172196 0.000000 -0.348890
v 0.377962 0.000000 -0.329973
v 0.146555 0.000000 -0.329973
v 0.123358 0.000000 -0.306194
v 0.401159 0.000000 -0.306194
v 0.102758 0.000000 -0.277797
v 0.262258 0.000000 -0.281047
v 0.421758 0.000000 -0.277797
v 0.243892 0.000000 -0.279045
v 0.280624 0.000000 -0.279045
v 0.226832 0.000000 -0.273121
v 0.297684 0.000000 -0.273121
v 0.084909 0.000000 -0.245025
v 0.439608 0.000000 -0.245025
v 0.211133 0.000000 -0.263390
v 0.313383 0.000000 -0.263390
v 0.196851 0.000000 -0.249973
v 0.327666 0.000000 -0.249973
v 0.184041 0.000000 -0.232985
v 0.340476 0.000000 -0.232985
v 0.069962 0.000000 -0.208121
v 0.454555 0.000000 -0.208121
v 0.172758 0.000000 -0.212547
v 0.351758 0.000000 -0.212547
v 0.163059 0.000000 -0.188775
v 0.361457 0.000000 -0.188775
v 0.058071 0.000000 -0.167328
v 0.466446 0.000000 -0.167328
v 0.154999 0.000000 -0.161787
v 0.369517 0.000000 -0.161787
v 0.049388 0.000000 -0.122889
v 0.475129 0.000000 -0.122889
v 0.148633 0.000000 -0.131703
v 0.375883 0.000000 -0.131703
v 0.144018 0.000000 -0.098639
v 0.380499 0.000000 -0.098639
v 0.044066 0.000000 -0.075048
v 0.480450 0.000000 -0.075048
v 0.141207 0.000000 -0.062714
v 0.383309 0.000000 -0.062714
v 0.042258 0.000000 -0.024047
v 0.482258 0.000000 -0.024047
v 0.140258 0.000000 -0.024047
v 0.384258 0.000000 -0.024047
v 0.044066 -0.000000 0.026955
v 0.141207 -0.000000 0.014621
v 0.383309 -0.000000 0.014621
v 0.480450 -0.000000 0.026955
v 0.144018 -0.000000 0.050546
v 0.380499 -0.000000 0.050546
v 0.049388 -0.000000 0.074796
v 0.475129 -0.000000 0.074796
v 0.148633 -0.000000 0.083610
v 0.375883 -0.000000 0.083610
v 0.058071 -0.000000 0.119235
v 0.466446 -0.000000 0.119235
v 0.369518 -0.000000 0.113694
v 0.154999 -0.000000 0.113694
v 0.361457 -0.000000 0.140681
v 0.163059 -0.000000 0.140681
v 0.069962 -0.000000 0.160027
v 0.454555 -0.000000 0.160027
v 0.351758 -0.000000 0.164453
v 0.172758 -0.000000 0.164453
v 0.084909 -0.000000 0.196931
v 0.439608 -0.000000 0.196931
v 0.340476 -0.000000 0.184892
v 0.184041 -0.000000 0.184892
v 0.327666 -0.000000 0.201879
v 0.196851 -0.000000 0.201879
v 0.102758 -0.000000 0.229703
v 0.421758 -0.000000 0.229703
v 0.313383 -0.000000 0.215297
v 0.211133 -0.000000 0.215297
v 0.297684 -0.000000 0.225027
v 0.226832 -0.000000 0.225027
v 0.280624 -0.000000 0.230952
v 0.243892 -0.000000 0.230952
v 0.123358 -0.000000 0.258100
v 0.401159 -0.000000 0.258100
v 0.262258 -0.000000 0.232953
v 0.146554 -0.000000 0.281879
v 0.377962 -0.000000 0.281879
v 0.172196 -0.000000 0.300797
v 0.352321 -0.000000 0.300797
v 0.200129 -0.000000 0.314611
v 0.324388 -0.000000 0.314611
v 0.230200 -0.000000 0.323077
v 0.294316 -0.000000 0.323077
v 0.262258 -0.000000 0.325953
v -0.292413 0.000000 -0.373608
v -0.248811 0.000000 -0.372262
v -0.278742 0.000000 -0.374047
v -0.305945 0.000000 -0.372287
v -0.319367 0.000000 -0.370078
v -0.220626 0.000000 -0.367019
v -0.332705 0.000000 -0.366973
v -0.194351 0.000000 -0.358484
v -0.345987 0.000000 -0.362964
v -0.359242 0.000000 -0.358047
v -0.170149 0.000000 -0.346824
v -0.372496 0.000000 -0.352212
v -0.385779 0.000000 -0.345454
v -0.148183 0.000000 -0.332206
v -0.399117 0.000000 -0.337765
v -0.412538 0.000000 -0.329139
v -0.128617 0.000000 -0.314797
v -0.426070 0.000000 -0.319569
v -0.439742 0.000000 -0.309047
v -0.111613 0.000000 -0.294762
v -0.439742 0.000000 -0.186047
v -0.426094 0.000000 -0.202562
v -0.412640 0.000000 -0.217167
v -0.399367 0.000000 -0.229953
v -0.386260 0.000000 -0.241010
v -0.373307 0.000000 -0.250427
v -0.360492 0.000000 -0.258297
v -0.347802 0.000000 -0.264708
v -0.335223 0.000000 -0.269750
v -0.322742 0.000000 -0.273515
v -0.310344 0.000000 -0.276093
v -0.298015 0.000000 -0.277573
v -0.285742 0.000000 -0.278047
v -0.097334 0.000000 -0.272269
v -0.269365 0.000000 -0.276960
v -0.253811 0.000000 -0.273773
v -0.239195 0.000000 -0.268593
v -0.085945 0.000000 -0.247484
v -0.225631 0.000000 -0.261528
v -0.213233 0.000000 -0.252685
v -0.202117 0.000000 -0.242172
v -0.077607 0.000000 -0.220574
v -0.192396 0.000000 -0.230096
v -0.184186 0.000000 -0.216565
v -0.072485 0.000000 -0.191706
v -0.177601 0.000000 -0.201687
v -0.172756 0.000000 -0.185570
v -0.070742 0.000000 -0.161047
v -0.169764 0.000000 -0.168320
v -0.168742 0.000000 -0.150047
v -0.072010 0.000000 -0.133610
v -0.169075 0.000000 -0.136250
v -0.170075 0.000000 -0.123260
v -0.075890 0.000000 -0.106556
v -0.171742 0.000000 -0.110922
v -0.174075 0.000000 -0.099084
v -0.082492 0.000000 -0.079515
v -0.177075 0.000000 -0.087593
v -0.180742 0.000000 -0.076297
v -0.091927 0.000000 -0.052121
v -0.185075 0.000000 -0.065042
v -0.190075 0.000000 -0.053676
v -0.195742 0.000000 -0.042047
v -0.104307 0.000000 -0.024004
v -0.202075 0.000000 -0.030000
v -0.209075 0.000000 -0.017385
v -0.119742 -0.000000 0.005203
v -0.216742 0.000000 -0.004047
v -0.232157 -0.000000 0.021191
v -0.138344 -0.000000 0.035869
v -0.249228 -0.000000 0.047268
v -0.160223 -0.000000 0.068361
v -0.267695 -0.000000 0.073985
v -0.185492 -0.000000 0.103047
v -0.287297 -0.000000 0.101139
v -0.307775 -0.000000 0.128529
v -0.214260 -0.000000 0.140296
v -0.328867 -0.000000 0.155953
v -0.246640 -0.000000 0.180475
v -0.350313 -0.000000 0.183212
v -0.282742 -0.000000 0.223953
v -0.371853 -0.000000 0.210102
v -0.393226 -0.000000 0.236422
v -0.021742 -0.000000 0.223953
v -0.021742 -0.000000 0.316953
v -0.414172 -0.000000 0.261972
v -0.434431 -0.000000 0.286549
v -0.453742 -0.000000 0.309953
v -0.453742 -0.000000 0.316953
vn -0.0000 1.0000 0.0000
usemtl None
s 1
f 65//2 66//2 67//2
f 65//2 68//2 66//2
f 69//2 68//2 65//2
f 69//2 70//2 68//2
f 71//2 70//2 69//2
f 71//2 72//2 70//2
f 73//2 72//2 71//2
f 74//2 72//2 73//2
f 74//2 75//2 72//2
f 76//2 75//2 74//2
f 76//2 77//2 75//2
f 77//2 78//2 75//2
f 76//2 79//2 77//2
f 80//2 78//2 77//2
f 76//2 81//2 79//2
f 82//2 78//2 80//2
f 83//2 81//2 76//2
f 82//2 84//2 78//2
f 83//2 85//2 81//2
f 86//2 84//2 82//2
f 83//2 87//2 85//2
f 88//2 84//2 86//2
f 83//2 89//2 87//2
f 90//2 84//2 88//2
f 91//2 89//2 83//2
f 90//2 92//2 84//2
f 91//2 93//2 89//2
f 94//2 92//2 90//2
f 91//2 95//2 93//2
f 96//2 92//2 94//2
f 97//2 95//2 91//2
f 96//2 98//2 92//2
f 97//2 99//2 95//2
f 100//2 98//2 96//2
f 101//2 99//2 97//2
f 100//2 102//2 98//2
f 101//2 103//2 99//2
f 104//2 102//2 100//2
f 101//2 105//2 103//2
f 106//2 102//2 104//2
f 107//2 105//2 101//2
f 106//2 108//2 102//2
f 107//2 109//2 105//2
f 110//2 108//2 106//2
f 111//2 109//2 107//2
f 110//2 112//2 108//2
f 111//2 113//2 109//2
f 114//2 112//2 110//2
f 115//2 113//2 111//2
f 115//2 116//2 113//2
f 117//2 112//2 114//2
f 117//2 118//2 112//2
f 115//2 119//2 116//2
f 120//2 118//2 117//2
f 121//2 119//2 115//2
f 120//2 122//2 118//2
f 121//2 123//2 119//2
f 124//2 122//2 120//2
f 125//2 123//2 121//2
f 124//2 126//2 122//2
f 127//2 126//2 124//2
f 125//2 128//2 123//2
f 129//2 126//2 127//2
f 125//2 130//2 128//2
f 131//2 130//2 125//2
f 129//2 132//2 126//2
f 133//2 132//2 129//2
f 131//2 134//2 130//2
f 135//2 134//2 131//2
f 133//2 136//2 132//2
f 137//2 136//2 133//2
f 135//2 138//2 134//2
f 139//2 136//2 137//2
f 135//2 140//2 138//2
f 141//2 140//2 135//2
f 139//2 142//2 136//2
f 143//2 142//2 139//2
f 141//2 144//2 140//2
f 145//2 142//2 143//2
f 141//2 146//2 144//2
f 147//2 142//2 145//2
f 141//2 148//2 146//2
f 149//2 148//2 141//2
f 147//2 150//2 142//2
f 151//2 150//2 147//2
f 149//2 151//2 148//2
f 149//2 150//2 151//2
f 152//2 150//2 149//2
f 152//2 153//2 150//2
f 154//2 153//2 152//2
f 154//2 155//2 153//2
f 156//2 155//2 154//2
f 156//2 157//2 155//2
f 158//2 157//2 156//2
f 158//2 159//2 157//2
f 160//2 159//2 158//2
f 161//2 162//2 163//2
f 164//2 162//2 161//2
f 165//2 162//2 164//2
f 165//2 166//2 162//2
f 167//2 166//2 165//2
f 167//2 168//2 166//2
f 169//2 168//2 167//2
f 170//2 168//2 169//2
f 170//2 171//2 168//2
f 172//2 171//2 170//2
f 173//2 171//2 172//2
f 173//2 174//2 171//2
f 175//2 174//2 173//2
f 176//2 174//2 175//2
f 176//2 177//2 174//2
f 178//2 177//2 176//2
f 179//2 177//2 178//2
f 179//2 180//2 177//2
f 181//2 182//2 179//2
f 182//2 183//2 179//2
f 183//2 184//2 179//2
f 184//2 185//2 179//2
f 185//2 186//2 179//2
f 186//2 187//2 179//2
f 187//2 188//2 179//2
f 188//2 189//2 179//2
f 189//2 190//2 179//2
f 190//2 191//2 179//2
f 191//2 192//2 179//2
f 192//2 180//2 179//2
f 192//2 193//2 180//2
f 193//2 194//2 180//2
f 195//2 194//2 193//2
f 196//2 194//2 195//2
f 197//2 194//2 196//2
f 197//2 198//2 194//2
f 199//2 198//2 197//2
f 200//2 198//2 199//2
f 201//2 198//2 200//2
f 201//2 202//2 198//2
f 203//2 202//2 201//2
f 204//2 202//2 203//2
f 204//2 205//2 202//2
f 206//2 205//2 204//2
f 207//2 205//2 206//2
f 207//2 208//2 205//2
f 209//2 208//2 207//2
f 210//2 208//2 209//2
f 210//2 211//2 208//2
f 212//2 211//2 210//2
f 213//2 211//2 212//2
f 213//2 214//2 211//2
f 215//2 214//2 213//2
f 216//2 214//2 215//2
f 216//2 217//2 214//2
f 218//2 217//2 216//2
f 219//2 217//2 218//2
f 219//2 220//2 217//2
f 221//2 220//2 219//2
f 222//2 220//2 221//2
f 223//2 220//2 222//2
f 223//2 224//2 220//2
f 225//2 224//2 223//2
f 226//2 224//2 225//2
f 226//2 227//2 224//2
f 228//2 227//2 226//2
f 229//2 227//2 228//2
f 229//2 230//2 227//2
f 231//2 230//2 229//2
f 231//2 232//2 230//2
f 233//2 232//2 231//2
f 233//2 234//2 232//2
f 235//2 234//2 233//2
f 236//2 234//2 235//2
f 236//2 237//2 234//2
f 238//2 237//2 236//2
f 238//2 239//2 237//2
f 240//2 239//2 238//2
f 240//2 241//2 239//2
f 242//2 241//2 240//2
f 243//2 241//2 242//2
f 243//2 244//2 241//2
f 243//2 245//2 244//2
f 246//2 245//2 243//2
f 247//2 245//2 246//2
f 248//2 245//2 247//2
f 249//2 245//2 248//2
