# Blender v2.79 (sub 0) OBJ File: ''
# www.blender.org
mtllib arrow.mtl
o Plane.001
v -0.694870 0.000000 -0.248979
v 0.719344 0.000000 1.165235
v 0.719344 0.000000 1.165235
v -0.694870 0.000000 -0.248979
v 1.072897 0.000000 0.811681
v -0.341317 0.000000 -0.602532
v 1.072897 0.000000 0.811681
v -0.341317 0.000000 -0.602532
vn 0.0000 1.0000 0.0000
usemtl None
s off
f 5//1 6//1 4//1 3//1
f 7//1 8//1 1//1 2//1
o Plane
v 0.707107 0.000000 -1.670835
v -0.707107 0.000000 -0.256621
v -0.707107 0.000000 -0.256621
v 0.707107 0.000000 -1.670835
v -0.353553 0.000000 0.096932
v 1.060660 0.000000 -1.317281
v -0.353553 0.000000 0.096932
v 1.060660 0.000000 -1.317281
vn 0.0000 1.0000 0.0000
usemtl None
s off
f 13//2 14//2 12//2 11//2
f 15//2 16//2 9//2 10//2
