# MagicaVoxel @ Ephtracy

# group
g calle_3

# material
mtllib calle_3.mtl
usemtl palette

# normals
vn -1 0 0
vn 1 0 0
vn 0 0 1
vn 0 0 -1
vn 0 -1 0
vn 0 1 0

# texcoords
vt 0.904297 0.5
vt 0.958984 0.5
vt 0.978516 0.5
vt 0.986328 0.5

# verts
v -45 0 45
v -45 0 28
v -45 0 25
v -45 0 -0
v -45 0 -1
v -45 0 -25
v -45 0 -28
v -45 0 -45
v -45 2 45
v -45 2 28
v -45 2 25
v -45 2 -0
v -45 2 -1
v -45 2 -25
v -45 2 -28
v -45 2 -45
v 45 0 45
v 45 0 -45
v 45 2 45
v 45 2 -45
v -45 0 45
v -45 2 45
v -28 0 45
v -28 2 45
v -25 0 45
v -25 2 45
v 0 0 45
v 0 2 45
v 1 0 45
v 1 2 45
v 25 0 45
v 25 2 45
v 28 0 45
v 28 2 45
v 45 0 45
v 45 2 45
v -45 0 -45
v -45 2 -45
v 45 0 -45
v 45 2 -45
v -45 0 45
v -28 0 45
v -25 0 45
v 0 0 45
v 1 0 45
v 25 0 45
v 28 0 45
v 45 0 45
v 0 0 43
v 1 0 43
v 0 0 40
v 1 0 40
v 0 0 37
v 1 0 37
v 0 0 34
v 1 0 34
v 0 0 31
v 1 0 31
v -45 0 28
v -28 0 28
v 0 0 28
v 1 0 28
v -45 0 25
v -25 0 25
v 0 0 25
v 1 0 25
v 0 0 22
v 1 0 22
v 0 0 19
v 1 0 19
v 0 0 16
v 1 0 16
v 0 0 13
v 1 0 13
v 0 0 10
v 1 0 10
v 0 0 7
v 1 0 7
v 0 0 4
v 1 0 4
v -45 0 -0
v -43 0 -0
v -40 0 -0
v -37 0 -0
v -34 0 -0
v -31 0 -0
v -28 0 -0
v -25 0 -0
v -22 0 -0
v -19 0 -0
v -16 0 -0
v -13 0 -0
v -10 0 -0
v -7 0 -0
v -4 0 -0
v 0 0 -0
v -45 0 -1
v -43 0 -1
v -40 0 -1
v -37 0 -1
v -34 0 -1
v -31 0 -1
v -28 0 -1
v -25 0 -1
v -22 0 -1
v -19 0 -1
v -16 0 -1
v -13 0 -1
v -10 0 -1
v -7 0 -1
v -4 0 -1
v 1 0 -1
v -45 0 -25
v 25 0 -25
v -45 0 -28
v 28 0 -28
v -45 0 -45
v 45 0 -45
v -45 2 45
v -28 2 45
v -25 2 45
v 0 2 45
v 1 2 45
v 25 2 45
v 28 2 45
v 45 2 45
v 0 2 43
v 1 2 43
v 0 2 40
v 1 2 40
v 0 2 37
v 1 2 37
v 0 2 34
v 1 2 34
v 0 2 31
v 1 2 31
v -45 2 28
v -28 2 28
v 0 2 28
v 1 2 28
v -45 2 25
v -25 2 25
v 0 2 25
v 1 2 25
v 0 2 22
v 1 2 22
v 0 2 19
v 1 2 19
v 0 2 16
v 1 2 16
v 0 2 13
v 1 2 13
v 0 2 10
v 1 2 10
v 0 2 7
v 1 2 7
v 0 2 4
v 1 2 4
v -45 2 -0
v -43 2 -0
v -40 2 -0
v -37 2 -0
v -34 2 -0
v -31 2 -0
v -28 2 -0
v -25 2 -0
v -22 2 -0
v -19 2 -0
v -16 2 -0
v -13 2 -0
v -10 2 -0
v -7 2 -0
v -4 2 -0
v 0 2 -0
v -45 2 -1
v -43 2 -1
v -40 2 -1
v -37 2 -1
v -34 2 -1
v -31 2 -1
v -28 2 -1
v -25 2 -1
v -22 2 -1
v -19 2 -1
v -16 2 -1
v -13 2 -1
v -10 2 -1
v -7 2 -1
v -4 2 -1
v 1 2 -1
v -45 2 -25
v 25 2 -25
v -45 2 -28
v 28 2 -28
v -45 2 -45
v 45 2 -45

# faces
f 9/1/1 2/1/1 1/1/1
f 10/3/1 3/3/1 2/3/1
f 10/1/1 2/1/1 9/1/1
f 11/4/1 4/4/1 3/4/1
f 11/3/1 3/3/1 10/3/1
f 12/2/1 5/2/1 4/2/1
f 12/4/1 4/4/1 11/4/1
f 13/4/1 6/4/1 5/4/1
f 13/2/1 5/2/1 12/2/1
f 14/3/1 7/3/1 6/3/1
f 14/4/1 6/4/1 13/4/1
f 15/1/1 8/1/1 7/1/1
f 15/3/1 7/3/1 14/3/1
f 16/1/1 8/1/1 15/1/1
f 17/1/2 18/1/2 19/1/2
f 19/1/2 18/1/2 20/1/2
f 23/1/3 22/1/3 21/1/3
f 24/1/3 22/1/3 23/1/3
f 25/3/3 24/3/3 23/3/3
f 26/3/3 24/3/3 25/3/3
f 27/4/3 26/4/3 25/4/3
f 28/4/3 26/4/3 27/4/3
f 29/2/3 28/2/3 27/2/3
f 30/2/3 28/2/3 29/2/3
f 31/4/3 30/4/3 29/4/3
f 32/4/3 30/4/3 31/4/3
f 33/3/3 32/3/3 31/3/3
f 34/3/3 32/3/3 33/3/3
f 35/1/3 34/1/3 33/1/3
f 36/1/3 34/1/3 35/1/3
f 37/1/4 38/1/4 39/1/4
f 39/1/4 38/1/4 40/1/4
f 49/4/5 44/4/5 43/4/5
f 49/2/5 45/2/5 44/2/5
f 50/4/5 46/4/5 45/4/5
f 50/2/5 45/2/5 49/2/5
f 51/4/5 49/4/5 43/4/5
f 51/4/5 50/4/5 49/4/5
f 52/4/5 46/4/5 50/4/5
f 52/4/5 50/4/5 51/4/5
f 53/4/5 51/4/5 43/4/5
f 53/2/5 52/2/5 51/2/5
f 54/4/5 46/4/5 52/4/5
f 54/2/5 52/2/5 53/2/5
f 55/4/5 53/4/5 43/4/5
f 55/4/5 54/4/5 53/4/5
f 56/4/5 46/4/5 54/4/5
f 56/4/5 54/4/5 55/4/5
f 57/4/5 55/4/5 43/4/5
f 57/2/5 56/2/5 55/2/5
f 58/4/5 46/4/5 56/4/5
f 58/2/5 56/2/5 57/2/5
f 59/1/5 42/1/5 41/1/5
f 60/3/5 43/3/5 42/3/5
f 60/1/5 42/1/5 59/1/5
f 61/4/5 57/4/5 43/4/5
f 61/4/5 58/4/5 57/4/5
f 62/4/5 46/4/5 58/4/5
f 62/4/5 58/4/5 61/4/5
f 63/3/5 60/3/5 59/3/5
f 64/4/5 61/4/5 43/4/5
f 64/3/5 60/3/5 63/3/5
f 64/3/5 43/3/5 60/3/5
f 65/2/5 62/2/5 61/2/5
f 65/4/5 61/4/5 64/4/5
f 66/4/5 46/4/5 62/4/5
f 66/2/5 62/2/5 65/2/5
f 67/4/5 64/4/5 63/4/5
f 67/4/5 65/4/5 64/4/5
f 67/4/5 66/4/5 65/4/5
f 68/4/5 46/4/5 66/4/5
f 68/4/5 66/4/5 67/4/5
f 69/4/5 67/4/5 63/4/5
f 69/2/5 68/2/5 67/2/5
f 70/4/5 46/4/5 68/4/5
f 70/2/5 68/2/5 69/2/5
f 71/4/5 69/4/5 63/4/5
f 71/4/5 70/4/5 69/4/5
f 72/4/5 46/4/5 70/4/5
f 72/4/5 70/4/5 71/4/5
f 73/4/5 71/4/5 63/4/5
f 73/2/5 72/2/5 71/2/5
f 74/4/5 46/4/5 72/4/5
f 74/2/5 72/2/5 73/2/5
f 75/4/5 73/4/5 63/4/5
f 75/4/5 74/4/5 73/4/5
f 76/4/5 46/4/5 74/4/5
f 76/4/5 74/4/5 75/4/5
f 77/4/5 75/4/5 63/4/5
f 77/2/5 76/2/5 75/2/5
f 78/4/5 46/4/5 76/4/5
f 78/2/5 76/2/5 77/2/5
f 79/4/5 77/4/5 63/4/5
f 79/4/5 78/4/5 77/4/5
f 80/4/5 46/4/5 78/4/5
f 80/4/5 78/4/5 79/4/5
f 81/4/5 79/4/5 63/4/5
f 82/4/5 79/4/5 81/4/5
f 83/4/5 79/4/5 82/4/5
f 84/4/5 79/4/5 83/4/5
f 85/4/5 79/4/5 84/4/5
f 86/4/5 79/4/5 85/4/5
f 87/4/5 79/4/5 86/4/5
f 88/4/5 79/4/5 87/4/5
f 89/4/5 79/4/5 88/4/5
f 90/4/5 79/4/5 89/4/5
f 91/4/5 79/4/5 90/4/5
f 92/4/5 79/4/5 91/4/5
f 93/4/5 79/4/5 92/4/5
f 94/4/5 79/4/5 93/4/5
f 95/4/5 79/4/5 94/4/5
f 96/2/5 80/2/5 79/2/5
f 96/4/5 79/4/5 95/4/5
f 97/2/5 82/2/5 81/2/5
f 98/4/5 83/4/5 82/4/5
f 98/2/5 82/2/5 97/2/5
f 99/2/5 84/2/5 83/2/5
f 99/4/5 83/4/5 98/4/5
f 100/4/5 85/4/5 84/4/5
f 100/2/5 84/2/5 99/2/5
f 101/2/5 86/2/5 85/2/5
f 101/4/5 85/4/5 100/4/5
f 102/4/5 87/4/5 86/4/5
f 102/2/5 86/2/5 101/2/5
f 103/2/5 88/2/5 87/2/5
f 103/4/5 87/4/5 102/4/5
f 104/4/5 89/4/5 88/4/5
f 104/2/5 88/2/5 103/2/5
f 105/2/5 90/2/5 89/2/5
f 105/4/5 89/4/5 104/4/5
f 106/4/5 91/4/5 90/4/5
f 106/2/5 90/2/5 105/2/5
f 107/2/5 92/2/5 91/2/5
f 107/4/5 91/4/5 106/4/5
f 108/4/5 93/4/5 92/4/5
f 108/2/5 92/2/5 107/2/5
f 109/2/5 94/2/5 93/2/5
f 109/4/5 93/4/5 108/4/5
f 110/4/5 95/4/5 94/4/5
f 110/2/5 94/2/5 109/2/5
f 111/2/5 96/2/5 95/2/5
f 111/4/5 95/4/5 110/4/5
f 112/4/5 46/4/5 80/4/5
f 112/2/5 96/2/5 111/2/5
f 112/2/5 80/2/5 96/2/5
f 113/4/5 111/4/5 110/4/5
f 113/4/5 109/4/5 108/4/5
f 113/4/5 112/4/5 111/4/5
f 113/4/5 108/4/5 107/4/5
f 113/4/5 107/4/5 106/4/5
f 113/4/5 106/4/5 105/4/5
f 113/4/5 105/4/5 104/4/5
f 113/4/5 104/4/5 103/4/5
f 113/4/5 103/4/5 102/4/5
f 113/4/5 102/4/5 101/4/5
f 113/4/5 101/4/5 100/4/5
f 113/4/5 100/4/5 99/4/5
f 113/4/5 99/4/5 98/4/5
f 113/4/5 98/4/5 97/4/5
f 113/4/5 110/4/5 109/4/5
f 114/3/5 47/3/5 46/3/5
f 114/4/5 112/4/5 113/4/5
f 114/4/5 46/4/5 112/4/5
f 115/3/5 114/3/5 113/3/5
f 116/1/5 48/1/5 47/1/5
f 116/3/5 114/3/5 115/3/5
f 116/3/5 47/3/5 114/3/5
f 117/1/5 116/1/5 115/1/5
f 118/1/5 48/1/5 116/1/5
f 118/1/5 116/1/5 117/1/5
f 121/4/6 122/4/6 127/4/6
f 122/2/6 123/2/6 127/2/6
f 123/4/6 124/4/6 128/4/6
f 127/2/6 123/2/6 128/2/6
f 121/4/6 127/4/6 129/4/6
f 127/4/6 128/4/6 129/4/6
f 128/4/6 124/4/6 130/4/6
f 129/4/6 128/4/6 130/4/6
f 121/4/6 129/4/6 131/4/6
f 129/2/6 130/2/6 131/2/6
f 130/4/6 124/4/6 132/4/6
f 131/2/6 130/2/6 132/2/6
f 121/4/6 131/4/6 133/4/6
f 131/4/6 132/4/6 133/4/6
f 132/4/6 124/4/6 134/4/6
f 133/4/6 132/4/6 134/4/6
f 121/4/6 133/4/6 135/4/6
f 133/2/6 134/2/6 135/2/6
f 134/4/6 124/4/6 136/4/6
f 135/2/6 134/2/6 136/2/6
f 119/1/6 120/1/6 137/1/6
f 120/3/6 121/3/6 138/3/6
f 137/1/6 120/1/6 138/1/6
f 121/4/6 135/4/6 139/4/6
f 135/4/6 136/4/6 139/4/6
f 136/4/6 124/4/6 140/4/6
f 139/4/6 136/4/6 140/4/6
f 137/3/6 138/3/6 141/3/6
f 121/4/6 139/4/6 142/4/6
f 141/3/6 138/3/6 142/3/6
f 138/3/6 121/3/6 142/3/6
f 139/2/6 140/2/6 143/2/6
f 142/4/6 139/4/6 143/4/6
f 140/4/6 124/4/6 144/4/6
f 143/2/6 140/2/6 144/2/6
f 141/4/6 142/4/6 145/4/6
f 142/4/6 143/4/6 145/4/6
f 143/4/6 144/4/6 145/4/6
f 144/4/6 124/4/6 146/4/6
f 145/4/6 144/4/6 146/4/6
f 141/4/6 145/4/6 147/4/6
f 145/2/6 146/2/6 147/2/6
f 146/4/6 124/4/6 148/4/6
f 147/2/6 146/2/6 148/2/6
f 141/4/6 147/4/6 149/4/6
f 147/4/6 148/4/6 149/4/6
f 148/4/6 124/4/6 150/4/6
f 149/4/6 148/4/6 150/4/6
f 141/4/6 149/4/6 151/4/6
f 149/2/6 150/2/6 151/2/6
f 150/4/6 124/4/6 152/4/6
f 151/2/6 150/2/6 152/2/6
f 141/4/6 151/4/6 153/4/6
f 151/4/6 152/4/6 153/4/6
f 152/4/6 124/4/6 154/4/6
f 153/4/6 152/4/6 154/4/6
f 141/4/6 153/4/6 155/4/6
f 153/2/6 154/2/6 155/2/6
f 154/4/6 124/4/6 156/4/6
f 155/2/6 154/2/6 156/2/6
f 141/4/6 155/4/6 157/4/6
f 155/4/6 156/4/6 157/4/6
f 156/4/6 124/4/6 158/4/6
f 157/4/6 156/4/6 158/4/6
f 141/4/6 157/4/6 159/4/6
f 159/4/6 157/4/6 160/4/6
f 160/4/6 157/4/6 161/4/6
f 161/4/6 157/4/6 162/4/6
f 162/4/6 157/4/6 163/4/6
f 163/4/6 157/4/6 164/4/6
f 164/4/6 157/4/6 165/4/6
f 165/4/6 157/4/6 166/4/6
f 166/4/6 157/4/6 167/4/6
f 167/4/6 157/4/6 168/4/6
f 168/4/6 157/4/6 169/4/6
f 169/4/6 157/4/6 170/4/6
f 170/4/6 157/4/6 171/4/6
f 171/4/6 157/4/6 172/4/6
f 172/4/6 157/4/6 173/4/6
f 157/2/6 158/2/6 174/2/6
f 173/4/6 157/4/6 174/4/6
f 159/2/6 160/2/6 175/2/6
f 160/4/6 161/4/6 176/4/6
f 175/2/6 160/2/6 176/2/6
f 161/2/6 162/2/6 177/2/6
f 176/4/6 161/4/6 177/4/6
f 162/4/6 163/4/6 178/4/6
f 177/2/6 162/2/6 178/2/6
f 163/2/6 164/2/6 179/2/6
f 178/4/6 163/4/6 179/4/6
f 164/4/6 165/4/6 180/4/6
f 179/2/6 164/2/6 180/2/6
f 165/2/6 166/2/6 181/2/6
f 180/4/6 165/4/6 181/4/6
f 166/4/6 167/4/6 182/4/6
f 181/2/6 166/2/6 182/2/6
f 167/2/6 168/2/6 183/2/6
f 182/4/6 167/4/6 183/4/6
f 168/4/6 169/4/6 184/4/6
f 183/2/6 168/2/6 184/2/6
f 169/2/6 170/2/6 185/2/6
f 184/4/6 169/4/6 185/4/6
f 170/4/6 171/4/6 186/4/6
f 185/2/6 170/2/6 186/2/6
f 171/2/6 172/2/6 187/2/6
f 186/4/6 171/4/6 187/4/6
f 172/4/6 173/4/6 188/4/6
f 187/2/6 172/2/6 188/2/6
f 173/2/6 174/2/6 189/2/6
f 188/4/6 173/4/6 189/4/6
f 158/4/6 124/4/6 190/4/6
f 189/2/6 174/2/6 190/2/6
f 174/2/6 158/2/6 190/2/6
f 188/4/6 189/4/6 191/4/6
f 186/4/6 187/4/6 191/4/6
f 189/4/6 190/4/6 191/4/6
f 185/4/6 186/4/6 191/4/6
f 184/4/6 185/4/6 191/4/6
f 183/4/6 184/4/6 191/4/6
f 182/4/6 183/4/6 191/4/6
f 181/4/6 182/4/6 191/4/6
f 180/4/6 181/4/6 191/4/6
f 179/4/6 180/4/6 191/4/6
f 178/4/6 179/4/6 191/4/6
f 177/4/6 178/4/6 191/4/6
f 176/4/6 177/4/6 191/4/6
f 175/4/6 176/4/6 191/4/6
f 187/4/6 188/4/6 191/4/6
f 124/3/6 125/3/6 192/3/6
f 191/4/6 190/4/6 192/4/6
f 190/4/6 124/4/6 192/4/6
f 191/3/6 192/3/6 193/3/6
f 125/1/6 126/1/6 194/1/6
f 193/3/6 192/3/6 194/3/6
f 192/3/6 125/3/6 194/3/6
f 193/1/6 194/1/6 195/1/6
f 194/1/6 126/1/6 196/1/6
f 195/1/6 194/1/6 196/1/6
