# MagicaVoxel @ Ephtracy

# group
g casa_azul

# material
mtllib casa_azul.mtl
usemtl palette

# normals
vn -1 0 0
vn 1 0 0
vn 0 0 1
vn 0 0 -1
vn 0 -1 0
vn 0 1 0

# texcoords
vt 0.0683594 0.5
vt 0.138672 0.5
vt 0.396484 0.5
vt 0.751953 0.5
vt 0.798828 0.5
vt 0.806641 0.5
vt 0.958984 0.5
vt 0.978516 0.5
vt 0.982422 0.5
vt 0.994141 0.5

# verts
v -14 19 14
v -14 19 -14
v -14 20 14
v -14 20 -14
v -13 0 13
v -13 0 -13
v -13 19 13
v -13 19 -13
v -11 20 14
v -11 20 -14
v -11 21 14
v -11 21 -14
v -9 21 14
v -9 21 -14
v -9 22 14
v -9 22 -14
v -7 22 14
v -7 22 -14
v -7 23 14
v -7 23 -14
v -5 23 14
v -5 23 -14
v -5 24 14
v -5 24 -14
v -3 24 14
v -3 24 -14
v -3 25 14
v -3 25 -14
v 2 23 14
v 2 23 13
v 2 23 -13
v 2 23 -14
v 2 24 14
v 2 24 13
v 2 24 -13
v 2 24 -14
v 4 0 13
v 4 0 12
v 4 15 13
v 4 15 12
v 4 22 14
v 4 22 13
v 4 22 -13
v 4 22 -14
v 4 23 14
v 4 23 13
v 4 23 -13
v 4 23 -14
v 6 21 14
v 6 21 13
v 6 21 -13
v 6 21 -14
v 6 22 14
v 6 22 13
v 6 22 -13
v 6 22 -14
v 8 20 14
v 8 20 13
v 8 20 -13
v 8 20 -14
v 8 21 14
v 8 21 13
v 8 21 -13
v 8 21 -14
v 10 19 14
v 10 19 13
v 10 19 -13
v 10 19 -14
v 10 20 14
v 10 20 13
v 10 20 -13
v 10 20 -14
v -10 19 14
v -10 19 13
v -10 19 -13
v -10 19 -14
v -10 20 14
v -10 20 13
v -10 20 -13
v -10 20 -14
v -8 20 14
v -8 20 13
v -8 20 -13
v -8 20 -14
v -8 21 14
v -8 21 13
v -8 21 -13
v -8 21 -14
v -6 21 14
v -6 21 13
v -6 21 -13
v -6 21 -14
v -6 22 14
v -6 22 13
v -6 22 -13
v -6 22 -14
v -5 0 13
v -5 0 12
v -5 15 13
v -5 15 12
v -4 22 14
v -4 22 13
v -4 22 -13
v -4 22 -14
v -4 23 14
v -4 23 13
v -4 23 -13
v -4 23 -14
v -2 23 14
v -2 23 13
v -2 23 -13
v -2 23 -14
v -2 24 14
v -2 24 13
v -2 24 -13
v -2 24 -14
v 3 24 14
v 3 24 -14
v 3 25 14
v 3 25 -14
v 5 23 14
v 5 23 -14
v 5 24 14
v 5 24 -14
v 7 22 14
v 7 22 -14
v 7 23 14
v 7 23 -14
v 9 21 14
v 9 21 -14
v 9 22 14
v 9 22 -14
v 11 20 14
v 11 20 -14
v 11 21 14
v 11 21 -14
v 13 0 13
v 13 0 -13
v 13 19 13
v 13 19 -13
v 14 19 14
v 14 19 -14
v 14 20 14
v 14 20 -14
v -14 19 14
v -14 20 14
v -11 20 14
v -11 21 14
v -10 19 14
v -10 20 14
v -9 21 14
v -9 22 14
v -8 20 14
v -8 21 14
v -7 22 14
v -7 23 14
v -6 21 14
v -6 22 14
v -5 23 14
v -5 24 14
v -4 22 14
v -4 23 14
v -3 24 14
v -3 25 14
v -2 23 14
v -2 24 14
v 2 23 14
v 2 24 14
v 3 24 14
v 3 25 14
v 4 22 14
v 4 23 14
v 5 23 14
v 5 24 14
v 6 21 14
v 6 22 14
v 7 22 14
v 7 23 14
v 8 20 14
v 8 21 14
v 9 21 14
v 9 22 14
v 10 19 14
v 10 20 14
v 11 20 14
v 11 21 14
v 14 19 14
v 14 20 14
v -13 0 13
v -13 19 13
v -12 11 13
v -12 16 13
v -10 19 13
v -10 20 13
v -8 20 13
v -8 21 13
v -7 11 13
v -7 16 13
v -6 0 13
v -6 16 13
v -6 21 13
v -6 22 13
v -5 0 13
v -5 15 13
v -4 22 13
v -4 23 13
v -2 23 13
v -2 24 13
v 2 23 13
v 2 24 13
v 4 0 13
v 4 15 13
v 4 22 13
v 4 23 13
v 5 0 13
v 5 16 13
v 6 11 13
v 6 16 13
v 6 21 13
v 6 22 13
v 8 20 13
v 8 21 13
v 10 19 13
v 10 20 13
v 11 11 13
v 11 16 13
v 13 0 13
v 13 19 13
v -5 0 12
v -5 15 12
v 4 0 12
v 4 15 12
v -13 0 -13
v -13 19 -13
v -10 19 -13
v -10 20 -13
v -8 20 -13
v -8 21 -13
v -6 21 -13
v -6 22 -13
v -4 22 -13
v -4 23 -13
v -2 23 -13
v -2 24 -13
v 2 23 -13
v 2 24 -13
v 4 22 -13
v 4 23 -13
v 6 21 -13
v 6 22 -13
v 8 20 -13
v 8 21 -13
v 10 19 -13
v 10 20 -13
v 13 0 -13
v 13 19 -13
v -14 19 -14
v -14 20 -14
v -11 20 -14
v -11 21 -14
v -10 19 -14
v -10 20 -14
v -9 21 -14
v -9 22 -14
v -8 20 -14
v -8 21 -14
v -7 22 -14
v -7 23 -14
v -6 21 -14
v -6 22 -14
v -5 23 -14
v -5 24 -14
v -4 22 -14
v -4 23 -14
v -3 24 -14
v -3 25 -14
v -2 23 -14
v -2 24 -14
v 2 23 -14
v 2 24 -14
v 3 24 -14
v 3 25 -14
v 4 22 -14
v 4 23 -14
v 5 23 -14
v 5 24 -14
v 6 21 -14
v 6 22 -14
v 7 22 -14
v 7 23 -14
v 8 20 -14
v 8 21 -14
v 9 21 -14
v 9 22 -14
v 10 19 -14
v 10 20 -14
v 11 20 -14
v 11 21 -14
v 14 19 -14
v 14 20 -14
v -13 0 13
v -6 0 13
v -5 0 13
v 4 0 13
v 5 0 13
v 13 0 13
v -12 0 12
v -6 0 12
v -5 0 12
v 4 0 12
v 5 0 12
v 11 0 12
v -5 0 11
v 4 0 11
v -12 0 -12
v 11 0 -12
v -13 0 -13
v 13 0 -13
v -5 15 13
v 4 15 13
v -5 15 12
v 4 15 12
v -14 19 14
v -10 19 14
v 10 19 14
v 14 19 14
v -13 19 13
v -10 19 13
v 10 19 13
v 13 19 13
v -13 19 -13
v -10 19 -13
v 10 19 -13
v 13 19 -13
v -14 19 -14
v -10 19 -14
v 10 19 -14
v 14 19 -14
v -10 20 14
v -8 20 14
v 8 20 14
v 10 20 14
v -10 20 13
v -8 20 13
v 8 20 13
v 10 20 13
v -10 20 -13
v -8 20 -13
v 8 20 -13
v 10 20 -13
v -10 20 -14
v -8 20 -14
v 8 20 -14
v 10 20 -14
v -8 21 14
v -6 21 14
v 6 21 14
v 8 21 14
v -8 21 13
v -6 21 13
v 6 21 13
v 8 21 13
v -8 21 -13
v -6 21 -13
v 6 21 -13
v 8 21 -13
v -8 21 -14
v -6 21 -14
v 6 21 -14
v 8 21 -14
v -6 22 14
v -4 22 14
v 4 22 14
v 6 22 14
v -6 22 13
v -4 22 13
v 4 22 13
v 6 22 13
v -6 22 -13
v -4 22 -13
v 4 22 -13
v 6 22 -13
v -6 22 -14
v -4 22 -14
v 4 22 -14
v 6 22 -14
v -4 23 14
v -2 23 14
v 2 23 14
v 4 23 14
v -4 23 13
v -2 23 13
v 2 23 13
v 4 23 13
v -4 23 -13
v -2 23 -13
v 2 23 -13
v 4 23 -13
v -4 23 -14
v -2 23 -14
v 2 23 -14
v 4 23 -14
v -2 24 14
v 2 24 14
v -2 24 13
v 2 24 13
v -2 24 -13
v 2 24 -13
v -2 24 -14
v 2 24 -14
v -14 20 14
v -11 20 14
v 11 20 14
v 14 20 14
v -14 20 -14
v -11 20 -14
v 11 20 -14
v 14 20 -14
v -11 21 14
v -9 21 14
v 9 21 14
v 11 21 14
v -11 21 -14
v -9 21 -14
v 9 21 -14
v 11 21 -14
v -9 22 14
v -7 22 14
v 7 22 14
v 9 22 14
v -9 22 -14
v -7 22 -14
v 7 22 -14
v 9 22 -14
v -7 23 14
v -5 23 14
v 5 23 14
v 7 23 14
v -7 23 -14
v -5 23 -14
v 5 23 -14
v 7 23 -14
v -5 24 14
v -3 24 14
v 3 24 14
v 5 24 14
v -5 24 -14
v -3 24 -14
v 3 24 -14
v 5 24 -14
v -3 25 14
v 3 25 14
v -3 25 -14
v 3 25 -14

# faces
f 3/5/1 2/5/1 1/5/1
f 4/5/1 2/5/1 3/5/1
f 7/7/1 6/7/1 5/7/1
f 8/7/1 6/7/1 7/7/1
f 11/5/1 10/5/1 9/5/1
f 12/5/1 10/5/1 11/5/1
f 15/5/1 14/5/1 13/5/1
f 16/5/1 14/5/1 15/5/1
f 19/5/1 18/5/1 17/5/1
f 20/5/1 18/5/1 19/5/1
f 23/5/1 22/5/1 21/5/1
f 24/5/1 22/5/1 23/5/1
f 27/5/1 26/5/1 25/5/1
f 28/5/1 26/5/1 27/5/1
f 33/5/1 30/5/1 29/5/1
f 34/5/1 30/5/1 33/5/1
f 35/5/1 32/5/1 31/5/1
f 36/5/1 32/5/1 35/5/1
f 39/10/1 38/10/1 37/10/1
f 40/10/1 38/10/1 39/10/1
f 45/5/1 42/5/1 41/5/1
f 46/5/1 42/5/1 45/5/1
f 47/5/1 44/5/1 43/5/1
f 48/5/1 44/5/1 47/5/1
f 53/5/1 50/5/1 49/5/1
f 54/5/1 50/5/1 53/5/1
f 55/5/1 52/5/1 51/5/1
f 56/5/1 52/5/1 55/5/1
f 61/5/1 58/5/1 57/5/1
f 62/5/1 58/5/1 61/5/1
f 63/5/1 60/5/1 59/5/1
f 64/5/1 60/5/1 63/5/1
f 69/5/1 66/5/1 65/5/1
f 70/5/1 66/5/1 69/5/1
f 71/5/1 68/5/1 67/5/1
f 72/5/1 68/5/1 71/5/1
f 73/5/2 74/5/2 77/5/2
f 77/5/2 74/5/2 78/5/2
f 75/5/2 76/5/2 79/5/2
f 79/5/2 76/5/2 80/5/2
f 81/5/2 82/5/2 85/5/2
f 85/5/2 82/5/2 86/5/2
f 83/5/2 84/5/2 87/5/2
f 87/5/2 84/5/2 88/5/2
f 89/5/2 90/5/2 93/5/2
f 93/5/2 90/5/2 94/5/2
f 91/5/2 92/5/2 95/5/2
f 95/5/2 92/5/2 96/5/2
f 97/10/2 98/10/2 99/10/2
f 99/10/2 98/10/2 100/10/2
f 101/5/2 102/5/2 105/5/2
f 105/5/2 102/5/2 106/5/2
f 103/5/2 104/5/2 107/5/2
f 107/5/2 104/5/2 108/5/2
f 109/5/2 110/5/2 113/5/2
f 113/5/2 110/5/2 114/5/2
f 111/5/2 112/5/2 115/5/2
f 115/5/2 112/5/2 116/5/2
f 117/5/2 118/5/2 119/5/2
f 119/5/2 118/5/2 120/5/2
f 121/5/2 122/5/2 123/5/2
f 123/5/2 122/5/2 124/5/2
f 125/5/2 126/5/2 127/5/2
f 127/5/2 126/5/2 128/5/2
f 129/5/2 130/5/2 131/5/2
f 131/5/2 130/5/2 132/5/2
f 133/5/2 134/5/2 135/5/2
f 135/5/2 134/5/2 136/5/2
f 137/7/2 138/7/2 139/7/2
f 139/7/2 138/7/2 140/7/2
f 141/5/2 142/5/2 143/5/2
f 143/5/2 142/5/2 144/5/2
f 147/5/3 146/5/3 145/5/3
f 149/5/3 147/5/3 145/5/3
f 149/5/3 148/5/3 147/5/3
f 150/5/3 148/5/3 149/5/3
f 151/5/3 148/5/3 150/5/3
f 153/5/3 151/5/3 150/5/3
f 153/5/3 152/5/3 151/5/3
f 154/5/3 152/5/3 153/5/3
f 155/5/3 152/5/3 154/5/3
f 157/5/3 155/5/3 154/5/3
f 157/5/3 156/5/3 155/5/3
f 158/5/3 156/5/3 157/5/3
f 159/5/3 156/5/3 158/5/3
f 161/5/3 159/5/3 158/5/3
f 161/5/3 160/5/3 159/5/3
f 162/5/3 160/5/3 161/5/3
f 163/5/3 160/5/3 162/5/3
f 165/5/3 163/5/3 162/5/3
f 165/5/3 164/5/3 163/5/3
f 166/5/3 164/5/3 165/5/3
f 168/5/3 164/5/3 166/5/3
f 169/5/3 164/5/3 168/5/3
f 169/5/3 168/5/3 167/5/3
f 170/5/3 164/5/3 169/5/3
f 172/5/3 169/5/3 167/5/3
f 173/5/3 169/5/3 172/5/3
f 173/5/3 172/5/3 171/5/3
f 174/5/3 169/5/3 173/5/3
f 176/5/3 173/5/3 171/5/3
f 177/5/3 173/5/3 176/5/3
f 177/5/3 176/5/3 175/5/3
f 178/5/3 173/5/3 177/5/3
f 180/5/3 177/5/3 175/5/3
f 181/5/3 177/5/3 180/5/3
f 181/5/3 180/5/3 179/5/3
f 182/5/3 177/5/3 181/5/3
f 184/5/3 181/5/3 179/5/3
f 185/5/3 181/5/3 184/5/3
f 185/5/3 184/5/3 183/5/3
f 186/5/3 181/5/3 185/5/3
f 187/5/3 185/5/3 183/5/3
f 188/5/3 185/5/3 187/5/3
f 191/7/3 190/7/3 189/7/3
f 192/7/3 190/7/3 191/7/3
f 193/7/3 190/7/3 192/7/3
f 195/7/3 194/7/3 193/7/3
f 197/7/3 191/7/3 189/7/3
f 197/4/3 192/4/3 191/4/3
f 198/7/3 196/7/3 195/7/3
f 198/4/3 192/4/3 197/4/3
f 198/7/3 195/7/3 193/7/3
f 198/7/3 193/7/3 192/7/3
f 199/7/3 197/7/3 189/7/3
f 199/7/3 198/7/3 197/7/3
f 200/7/3 196/7/3 198/7/3
f 200/7/3 198/7/3 199/7/3
f 201/7/3 196/7/3 200/7/3
f 203/10/3 200/10/3 199/10/3
f 204/10/3 200/10/3 203/10/3
f 205/7/3 202/7/3 201/7/3
f 205/7/3 201/7/3 200/7/3
f 207/7/3 206/7/3 205/7/3
f 209/7/3 207/7/3 205/7/3
f 209/7/3 208/7/3 207/7/3
f 210/7/3 208/7/3 209/7/3
f 212/10/3 200/10/3 204/10/3
f 213/7/3 205/7/3 200/7/3
f 213/7/3 209/7/3 205/7/3
f 214/7/3 209/7/3 213/7/3
f 215/10/3 212/10/3 211/10/3
f 216/10/3 200/10/3 212/10/3
f 216/10/3 212/10/3 215/10/3
f 216/7/3 213/7/3 200/7/3
f 217/7/3 216/7/3 215/7/3
f 218/7/3 213/7/3 216/7/3
f 218/7/3 216/7/3 217/7/3
f 219/7/3 213/7/3 218/7/3
f 220/7/3 213/7/3 219/7/3
f 221/7/3 219/7/3 218/7/3
f 222/7/3 219/7/3 221/7/3
f 223/7/3 221/7/3 218/7/3
f 224/7/3 221/7/3 223/7/3
f 225/7/3 217/7/3 215/7/3
f 225/4/3 218/4/3 217/4/3
f 226/7/3 223/7/3 218/7/3
f 226/4/3 218/4/3 225/4/3
f 227/7/3 225/7/3 215/7/3
f 227/7/3 226/7/3 225/7/3
f 228/7/3 223/7/3 226/7/3
f 228/7/3 226/7/3 227/7/3
f 231/3/3 230/3/3 229/3/3
f 232/3/3 230/3/3 231/3/3
f 233/7/4 234/7/4 235/7/4
f 235/7/4 236/7/4 237/7/4
f 237/7/4 238/7/4 239/7/4
f 239/7/4 240/7/4 241/7/4
f 241/7/4 242/7/4 243/7/4
f 241/7/4 243/7/4 245/7/4
f 243/7/4 244/7/4 245/7/4
f 245/7/4 244/7/4 246/7/4
f 239/7/4 241/7/4 247/7/4
f 241/7/4 245/7/4 247/7/4
f 247/7/4 245/7/4 248/7/4
f 237/7/4 239/7/4 249/7/4
f 239/7/4 247/7/4 249/7/4
f 249/7/4 247/7/4 250/7/4
f 235/7/4 237/7/4 251/7/4
f 237/7/4 249/7/4 251/7/4
f 251/7/4 249/7/4 252/7/4
f 233/7/4 235/7/4 253/7/4
f 235/7/4 251/7/4 253/7/4
f 253/7/4 251/7/4 254/7/4
f 233/7/4 253/7/4 255/7/4
f 255/7/4 253/7/4 256/7/4
f 257/5/4 258/5/4 259/5/4
f 257/5/4 259/5/4 261/5/4
f 259/5/4 260/5/4 261/5/4
f 261/5/4 260/5/4 262/5/4
f 262/5/4 260/5/4 263/5/4
f 262/5/4 263/5/4 265/5/4
f 263/5/4 264/5/4 265/5/4
f 265/5/4 264/5/4 266/5/4
f 266/5/4 264/5/4 267/5/4
f 266/5/4 267/5/4 269/5/4
f 267/5/4 268/5/4 269/5/4
f 269/5/4 268/5/4 270/5/4
f 270/5/4 268/5/4 271/5/4
f 270/5/4 271/5/4 273/5/4
f 271/5/4 272/5/4 273/5/4
f 273/5/4 272/5/4 274/5/4
f 274/5/4 272/5/4 275/5/4
f 274/5/4 275/5/4 277/5/4
f 275/5/4 276/5/4 277/5/4
f 277/5/4 276/5/4 278/5/4
f 278/5/4 276/5/4 280/5/4
f 280/5/4 276/5/4 281/5/4
f 279/5/4 280/5/4 281/5/4
f 281/5/4 276/5/4 282/5/4
f 279/5/4 281/5/4 284/5/4
f 284/5/4 281/5/4 285/5/4
f 283/5/4 284/5/4 285/5/4
f 285/5/4 281/5/4 286/5/4
f 283/5/4 285/5/4 288/5/4
f 288/5/4 285/5/4 289/5/4
f 287/5/4 288/5/4 289/5/4
f 289/5/4 285/5/4 290/5/4
f 287/5/4 289/5/4 292/5/4
f 292/5/4 289/5/4 293/5/4
f 291/5/4 292/5/4 293/5/4
f 293/5/4 289/5/4 294/5/4
f 291/5/4 293/5/4 296/5/4
f 296/5/4 293/5/4 297/5/4
f 295/5/4 296/5/4 297/5/4
f 297/5/4 293/5/4 298/5/4
f 295/5/4 297/5/4 299/5/4
f 299/5/4 297/5/4 300/5/4
f 307/7/5 302/7/5 301/7/5
f 308/10/5 303/10/5 302/10/5
f 308/7/5 302/7/5 307/7/5
f 309/10/5 303/10/5 308/10/5
f 310/10/5 305/10/5 304/10/5
f 311/7/5 306/7/5 305/7/5
f 311/10/5 305/10/5 310/10/5
f 312/7/5 306/7/5 311/7/5
f 313/3/5 310/3/5 309/3/5
f 313/8/5 309/8/5 308/8/5
f 313/8/5 308/8/5 307/8/5
f 314/8/5 312/8/5 311/8/5
f 314/3/5 310/3/5 313/3/5
f 314/8/5 311/8/5 310/8/5
f 315/7/5 307/7/5 301/7/5
f 315/8/5 313/8/5 307/8/5
f 315/8/5 314/8/5 313/8/5
f 316/7/5 306/7/5 312/7/5
f 316/8/5 314/8/5 315/8/5
f 316/8/5 312/8/5 314/8/5
f 317/7/5 315/7/5 301/7/5
f 317/7/5 316/7/5 315/7/5
f 318/7/5 306/7/5 316/7/5
f 318/7/5 316/7/5 317/7/5
f 321/10/5 320/10/5 319/10/5
f 322/10/5 320/10/5 321/10/5
f 327/5/5 324/5/5 323/5/5
f 328/5/5 324/5/5 327/5/5
f 329/5/5 326/5/5 325/5/5
f 330/5/5 326/5/5 329/5/5
f 331/5/5 327/5/5 323/5/5
f 334/5/5 326/5/5 330/5/5
f 335/5/5 332/5/5 331/5/5
f 335/5/5 331/5/5 323/5/5
f 336/5/5 332/5/5 335/5/5
f 337/5/5 334/5/5 333/5/5
f 338/5/5 326/5/5 334/5/5
f 338/5/5 334/5/5 337/5/5
f 343/5/5 340/5/5 339/5/5
f 344/5/5 340/5/5 343/5/5
f 345/5/5 342/5/5 341/5/5
f 346/5/5 342/5/5 345/5/5
f 351/5/5 348/5/5 347/5/5
f 352/5/5 348/5/5 351/5/5
f 353/5/5 350/5/5 349/5/5
f 354/5/5 350/5/5 353/5/5
f 359/5/5 356/5/5 355/5/5
f 360/5/5 356/5/5 359/5/5
f 361/5/5 358/5/5 357/5/5
f 362/5/5 358/5/5 361/5/5
f 367/5/5 364/5/5 363/5/5
f 368/5/5 364/5/5 367/5/5
f 369/5/5 366/5/5 365/5/5
f 370/5/5 366/5/5 369/5/5
f 375/5/5 372/5/5 371/5/5
f 376/5/5 372/5/5 375/5/5
f 377/5/5 374/5/5 373/5/5
f 378/5/5 374/5/5 377/5/5
f 383/5/5 380/5/5 379/5/5
f 384/5/5 380/5/5 383/5/5
f 385/5/5 382/5/5 381/5/5
f 386/5/5 382/5/5 385/5/5
f 391/5/5 388/5/5 387/5/5
f 392/5/5 388/5/5 391/5/5
f 393/5/5 390/5/5 389/5/5
f 394/5/5 390/5/5 393/5/5
f 399/5/5 396/5/5 395/5/5
f 400/5/5 396/5/5 399/5/5
f 401/5/5 398/5/5 397/5/5
f 402/5/5 398/5/5 401/5/5
f 405/5/5 404/5/5 403/5/5
f 406/5/5 404/5/5 405/5/5
f 409/5/5 408/5/5 407/5/5
f 410/5/5 408/5/5 409/5/5
f 411/5/6 412/5/6 415/5/6
f 415/5/6 412/5/6 416/5/6
f 413/5/6 414/5/6 417/5/6
f 417/5/6 414/5/6 418/5/6
f 419/5/6 420/5/6 423/5/6
f 423/5/6 420/5/6 424/5/6
f 421/5/6 422/5/6 425/5/6
f 425/5/6 422/5/6 426/5/6
f 427/5/6 428/5/6 431/5/6
f 431/5/6 428/5/6 432/5/6
f 429/5/6 430/5/6 433/5/6
f 433/5/6 430/5/6 434/5/6
f 435/5/6 436/5/6 439/5/6
f 439/5/6 436/5/6 440/5/6
f 437/5/6 438/5/6 441/5/6
f 441/5/6 438/5/6 442/5/6
f 443/5/6 444/5/6 447/5/6
f 447/5/6 444/5/6 448/5/6
f 445/5/6 446/5/6 449/5/6
f 449/5/6 446/5/6 450/5/6
f 451/5/6 452/5/6 453/5/6
f 453/5/6 452/5/6 454/5/6
