# MagicaVoxel @ Ephtracy

# group
g furgoneta

# material
mtllib furgoneta.mtl
usemtl palette

# normals
vn -1 0 0
vn 1 0 0
vn 0 0 1
vn 0 0 -1
vn 0 -1 0
vn 0 1 0

# texcoords
vt 0.115234 0.5
vt 0.587891 0.5
vt 0.615234 0.5
vt 0.705078 0.5
vt 0.841797 0.5
vt 0.958984 0.5
vt 0.962891 0.5
vt 0.966797 0.5
vt 0.970703 0.5
vt 0.974609 0.5
vt 0.978516 0.5
vt 0.986328 0.5
vt 0.990234 0.5
vt 0.994141 0.5

# verts
v -7.5 2 16
v -7.5 2 11
v -7.5 3 6
v -7.5 3 -3
v -7.5 4 11
v -7.5 4 10
v -7.5 4 7
v -7.5 4 6
v -7.5 5 10
v -7.5 5 7
v -7.5 7 -9
v -7.5 7 -10
v -7.5 9 -9
v -7.5 9 -10
v -7.5 17 16
v -7.5 17 -3
v -6.5 0 10
v -6.5 0 7
v -6.5 0 -11
v -6.5 0 -14
v -6.5 1 11
v -6.5 1 10
v -6.5 1 7
v -6.5 1 6
v -6.5 1 -10
v -6.5 1 -11
v -6.5 1 -14
v -6.5 1 -15
v -6.5 2 11
v -6.5 2 6
v -6.5 2 -10
v -6.5 2 -15
v -6.5 2 -16
v -6.5 3 6
v -6.5 3 -3
v -6.5 4 11
v -6.5 4 10
v -6.5 4 7
v -6.5 4 6
v -6.5 4 -10
v -6.5 4 -11
v -6.5 4 -14
v -6.5 4 -15
v -6.5 5 10
v -6.5 5 7
v -6.5 5 -11
v -6.5 5 -14
v -6.5 5 -15
v -6.5 5 -16
v -6.5 7 -9
v -6.5 7 -10
v -6.5 7 -15
v -6.5 7 -16
v -6.5 8 -4
v -6.5 8 -9
v -6.5 8 -11
v -6.5 8 -16
v -6.5 9 -9
v -6.5 9 -10
v -6.5 11 -4
v -6.5 11 -10
v -6.5 12 -3
v -6.5 12 -11
v 4.5 3 3
v 4.5 3 -0
v 4.5 5 3
v 4.5 5 -0
v 5.5 0 10
v 5.5 0 7
v 5.5 0 -11
v 5.5 0 -14
v 5.5 1 11
v 5.5 1 10
v 5.5 1 7
v 5.5 1 6
v 5.5 1 -10
v 5.5 1 -11
v 5.5 1 -14
v 5.5 1 -15
v 5.5 2 11
v 5.5 2 10
v 5.5 2 7
v 5.5 2 6
v 5.5 2 -10
v 5.5 2 -11
v 5.5 2 -14
v 5.5 2 -15
v -5.5 0 10
v -5.5 0 7
v -5.5 0 -11
v -5.5 0 -14
v -5.5 1 11
v -5.5 1 10
v -5.5 1 7
v -5.5 1 6
v -5.5 1 -10
v -5.5 1 -11
v -5.5 1 -14
v -5.5 1 -15
v -5.5 2 11
v -5.5 2 10
v -5.5 2 7
v -5.5 2 6
v -5.5 2 -10
v -5.5 2 -11
v -5.5 2 -14
v -5.5 2 -15
v -4.5 3 3
v -4.5 3 -0
v -4.5 4 3
v -4.5 5 3
v -4.5 5 -0
v 6.5 0 10
v 6.5 0 7
v 6.5 0 -11
v 6.5 0 -14
v 6.5 1 11
v 6.5 1 10
v 6.5 1 7
v 6.5 1 6
v 6.5 1 -10
v 6.5 1 -11
v 6.5 1 -14
v 6.5 1 -15
v 6.5 2 11
v 6.5 2 6
v 6.5 2 -10
v 6.5 2 -15
v 6.5 2 -16
v 6.5 3 6
v 6.5 3 -3
v 6.5 4 11
v 6.5 4 10
v 6.5 4 7
v 6.5 4 6
v 6.5 4 -10
v 6.5 4 -11
v 6.5 4 -14
v 6.5 4 -15
v 6.5 5 10
v 6.5 5 7
v 6.5 5 -11
v 6.5 5 -14
v 6.5 5 -15
v 6.5 5 -16
v 6.5 7 -9
v 6.5 7 -10
v 6.5 7 -15
v 6.5 7 -16
v 6.5 8 -4
v 6.5 8 -9
v 6.5 8 -11
v 6.5 8 -16
v 6.5 9 -9
v 6.5 9 -10
v 6.5 11 -4
v 6.5 11 -10
v 6.5 12 -3
v 6.5 12 -11
v 7.5 2 16
v 7.5 2 11
v 7.5 3 6
v 7.5 3 -3
v 7.5 4 11
v 7.5 4 10
v 7.5 4 7
v 7.5 4 6
v 7.5 5 10
v 7.5 5 7
v 7.5 7 -9
v 7.5 7 -10
v 7.5 9 -9
v 7.5 9 -10
v 7.5 17 16
v 7.5 17 -3
v -7.5 2 16
v -7.5 17 16
v -5.5 2 16
v -5.5 16 16
v -4.5 2 16
v -4.5 15 16
v -0.5 2 16
v -0.5 15 16
v 0.5 2 16
v 0.5 15 16
v 4.5 2 16
v 4.5 15 16
v 5.5 2 16
v 5.5 16 16
v 7.5 2 16
v 7.5 17 16
v -6.5 1 11
v -6.5 2 11
v -5.5 1 11
v -5.5 2 11
v 5.5 1 11
v 5.5 2 11
v 6.5 1 11
v 6.5 2 11
v -6.5 0 10
v -6.5 1 10
v -5.5 0 10
v -5.5 1 10
v 5.5 0 10
v 5.5 1 10
v 6.5 0 10
v 6.5 1 10
v -7.5 4 7
v -7.5 5 7
v -6.5 4 7
v -6.5 5 7
v 6.5 4 7
v 6.5 5 7
v 7.5 4 7
v 7.5 5 7
v -7.5 3 6
v -7.5 4 6
v -6.5 3 6
v -6.5 4 6
v 6.5 3 6
v 6.5 4 6
v 7.5 3 6
v 7.5 4 6
v -4.5 3 -0
v -4.5 5 -0
v 4.5 3 -0
v 4.5 5 -0
v -7.5 7 -9
v -7.5 9 -9
v -6.5 7 -9
v -6.5 8 -9
v -6.5 9 -9
v 6.5 7 -9
v 6.5 8 -9
v 6.5 9 -9
v 7.5 7 -9
v 7.5 9 -9
v -6.5 1 -10
v -6.5 2 -10
v -5.5 1 -10
v -5.5 2 -10
v 5.5 1 -10
v 5.5 2 -10
v 6.5 1 -10
v 6.5 2 -10
v -6.5 0 -11
v -6.5 1 -11
v -5.5 0 -11
v -5.5 1 -11
v 5.5 0 -11
v 5.5 1 -11
v 6.5 0 -11
v 6.5 1 -11
v -7.5 2 11
v -7.5 4 11
v -6.5 2 11
v -6.5 4 11
v 6.5 2 11
v 6.5 4 11
v 7.5 2 11
v 7.5 4 11
v -7.5 4 10
v -7.5 5 10
v -6.5 4 10
v -6.5 5 10
v 6.5 4 10
v 6.5 5 10
v 7.5 4 10
v 7.5 5 10
v -6.5 0 7
v -6.5 1 7
v -5.5 0 7
v -5.5 1 7
v 5.5 0 7
v 5.5 1 7
v 6.5 0 7
v 6.5 1 7
v -6.5 1 6
v -6.5 2 6
v -5.5 1 6
v -5.5 2 6
v 5.5 1 6
v 5.5 2 6
v 6.5 1 6
v 6.5 2 6
v -4.5 3 3
v -4.5 4 3
v -4.5 5 3
v -3.5 3 3
v -3.5 4 3
v 4.5 3 3
v 4.5 5 3
v -7.5 3 -3
v -7.5 17 -3
v -6.5 3 -3
v -6.5 12 -3
v 6.5 3 -3
v 6.5 12 -3
v 7.5 3 -3
v 7.5 17 -3
v -7.5 7 -10
v -7.5 9 -10
v -6.5 7 -10
v -6.5 9 -10
v 6.5 7 -10
v 6.5 9 -10
v 7.5 7 -10
v 7.5 9 -10
v -6.5 8 -11
v -6.5 12 -11
v -5.5 8 -11
v -5.5 11 -11
v 5.5 8 -11
v 5.5 11 -11
v 6.5 8 -11
v 6.5 12 -11
v -6.5 0 -14
v -6.5 1 -14
v -5.5 0 -14
v -5.5 1 -14
v 5.5 0 -14
v 5.5 1 -14
v 6.5 0 -14
v 6.5 1 -14
v -6.5 1 -15
v -6.5 2 -15
v -5.5 1 -15
v -5.5 2 -15
v 5.5 1 -15
v 5.5 2 -15
v 6.5 1 -15
v 6.5 2 -15
v -6.5 2 -16
v -6.5 5 -16
v -6.5 7 -16
v -6.5 8 -16
v -3.5 5 -16
v -3.5 7 -16
v -2.5 5 -16
v -2.5 7 -16
v 2.5 5 -16
v 2.5 7 -16
v 3.5 5 -16
v 3.5 7 -16
v 6.5 2 -16
v 6.5 5 -16
v 6.5 7 -16
v 6.5 8 -16
v -6.5 0 10
v -5.5 0 10
v 5.5 0 10
v 6.5 0 10
v -6.5 0 7
v -5.5 0 7
v 5.5 0 7
v 6.5 0 7
v -6.5 0 -11
v -5.5 0 -11
v 5.5 0 -11
v 6.5 0 -11
v -6.5 0 -14
v -5.5 0 -14
v 5.5 0 -14
v 6.5 0 -14
v -6.5 1 11
v -5.5 1 11
v 5.5 1 11
v 6.5 1 11
v -6.5 1 10
v -5.5 1 10
v 5.5 1 10
v 6.5 1 10
v -6.5 1 7
v -5.5 1 7
v 5.5 1 7
v 6.5 1 7
v -6.5 1 6
v -5.5 1 6
v 5.5 1 6
v 6.5 1 6
v -6.5 1 -10
v -5.5 1 -10
v 5.5 1 -10
v 6.5 1 -10
v -6.5 1 -11
v -5.5 1 -11
v 5.5 1 -11
v 6.5 1 -11
v -6.5 1 -14
v -5.5 1 -14
v 5.5 1 -14
v 6.5 1 -14
v -6.5 1 -15
v -5.5 1 -15
v 5.5 1 -15
v 6.5 1 -15
v -7.5 2 16
v -5.5 2 16
v -4.5 2 16
v -0.5 2 16
v 0.5 2 16
v 4.5 2 16
v 5.5 2 16
v 7.5 2 16
v -5.5 2 15
v -4.5 2 15
v -0.5 2 15
v 0.5 2 15
v 4.5 2 15
v 5.5 2 15
v -6.5 2 14
v 6.5 2 14
v -5.5 2 13
v 5.5 2 13
v -7.5 2 11
v -6.5 2 11
v -5.5 2 11
v 5.5 2 11
v 6.5 2 11
v 7.5 2 11
v -5.5 2 10
v 5.5 2 10
v -5.5 2 7
v 5.5 2 7
v -6.5 2 6
v -5.5 2 6
v 5.5 2 6
v 6.5 2 6
v -6.5 2 -10
v -5.5 2 -10
v 5.5 2 -10
v 6.5 2 -10
v -5.5 2 -11
v 5.5 2 -11
v -5.5 2 -14
v 5.5 2 -14
v -6.5 2 -15
v -5.5 2 -15
v 5.5 2 -15
v 6.5 2 -15
v -6.5 2 -16
v 6.5 2 -16
v -7.5 3 6
v -6.5 3 6
v 6.5 3 6
v 7.5 3 6
v -7.5 3 -3
v -6.5 3 -3
v 6.5 3 -3
v 7.5 3 -3
v -7.5 4 11
v -6.5 4 11
v 6.5 4 11
v 7.5 4 11
v -7.5 4 10
v -6.5 4 10
v 6.5 4 10
v 7.5 4 10
v -7.5 4 7
v -6.5 4 7
v 6.5 4 7
v 7.5 4 7
v -7.5 4 6
v -6.5 4 6
v 6.5 4 6
v 7.5 4 6
v -7.5 5 10
v -6.5 5 10
v 6.5 5 10
v 7.5 5 10
v -7.5 5 7
v -6.5 5 7
v 6.5 5 7
v 7.5 5 7
v -4.5 5 3
v 4.5 5 3
v -4.5 5 -0
v 4.5 5 -0
v -7.5 7 -9
v -6.5 7 -9
v 6.5 7 -9
v 7.5 7 -9
v -7.5 7 -10
v -6.5 7 -10
v 6.5 7 -10
v 7.5 7 -10
v -4.5 3 3
v -3.5 3 3
v 4.5 3 3
v -4.5 3 -0
v 4.5 3 -0
v -6.5 8 -11
v -5.5 8 -11
v 5.5 8 -11
v 6.5 8 -11
v -6.5 8 -16
v 6.5 8 -16
v -7.5 9 -9
v -6.5 9 -9
v 6.5 9 -9
v 7.5 9 -9
v -7.5 9 -10
v -6.5 9 -10
v 6.5 9 -10
v 7.5 9 -10
v -6.5 12 -3
v 6.5 12 -3
v -6.5 12 -11
v 6.5 12 -11
v -7.5 17 16
v 7.5 17 16
v -7.5 17 -3
v 7.5 17 -3

# faces
f 5/11/1 2/11/1 1/11/1
f 8/11/1 4/11/1 3/11/1
f 9/11/1 6/11/1 5/11/1
f 10/11/1 8/11/1 7/11/1
f 13/7/1 12/7/1 11/7/1
f 14/7/1 12/7/1 13/7/1
f 15/11/1 9/11/1 5/11/1
f 15/11/1 5/11/1 1/11/1
f 15/11/1 10/11/1 9/11/1
f 16/11/1 4/11/1 8/11/1
f 16/11/1 10/11/1 15/11/1
f 16/11/1 8/11/1 10/11/1
f 22/12/1 18/12/1 17/12/1
f 23/12/1 18/12/1 22/12/1
f 26/12/1 20/12/1 19/12/1
f 27/12/1 20/12/1 26/12/1
f 29/12/1 22/12/1 21/12/1
f 30/12/1 24/12/1 23/12/1
f 31/12/1 26/12/1 25/12/1
f 32/12/1 28/12/1 27/12/1
f 34/4/1 31/4/1 30/4/1
f 34/12/1 30/12/1 23/12/1
f 35/4/1 31/4/1 34/4/1
f 36/12/1 22/12/1 29/12/1
f 37/10/1 23/10/1 22/10/1
f 37/12/1 22/12/1 36/12/1
f 38/12/1 34/12/1 23/12/1
f 38/10/1 23/10/1 37/10/1
f 39/12/1 34/12/1 38/12/1
f 40/4/1 31/4/1 35/4/1
f 40/12/1 26/12/1 31/12/1
f 41/10/1 27/10/1 26/10/1
f 41/12/1 26/12/1 40/12/1
f 42/12/1 32/12/1 27/12/1
f 42/10/1 27/10/1 41/10/1
f 43/4/1 33/4/1 32/4/1
f 43/12/1 32/12/1 42/12/1
f 44/12/1 38/12/1 37/12/1
f 45/12/1 38/12/1 44/12/1
f 46/12/1 42/12/1 41/12/1
f 46/4/1 41/4/1 40/4/1
f 47/4/1 43/4/1 42/4/1
f 47/12/1 42/12/1 46/12/1
f 48/4/1 33/4/1 43/4/1
f 48/4/1 43/4/1 47/4/1
f 49/4/1 33/4/1 48/4/1
f 50/4/1 47/4/1 46/4/1
f 50/4/1 40/4/1 35/4/1
f 50/4/1 48/4/1 47/4/1
f 50/4/1 46/4/1 40/4/1
f 51/4/1 48/4/1 50/4/1
f 52/6/1 49/6/1 48/6/1
f 52/4/1 48/4/1 51/4/1
f 53/6/1 49/6/1 52/6/1
f 54/4/1 50/4/1 35/4/1
f 55/4/1 50/4/1 54/4/1
f 56/4/1 53/4/1 52/4/1
f 56/4/1 52/4/1 51/4/1
f 57/4/1 53/4/1 56/4/1
f 58/13/1 55/13/1 54/13/1
f 59/4/1 56/4/1 51/4/1
f 60/4/1 54/4/1 35/4/1
f 60/13/1 59/13/1 58/13/1
f 60/13/1 58/13/1 54/13/1
f 61/4/1 56/4/1 59/4/1
f 61/13/1 59/13/1 60/13/1
f 62/4/1 60/4/1 35/4/1
f 62/4/1 61/4/1 60/4/1
f 63/4/1 56/4/1 61/4/1
f 63/4/1 61/4/1 62/4/1
f 66/9/1 65/9/1 64/9/1
f 67/9/1 65/9/1 66/9/1
f 73/12/1 69/12/1 68/12/1
f 74/12/1 69/12/1 73/12/1
f 77/12/1 71/12/1 70/12/1
f 78/12/1 71/12/1 77/12/1
f 80/12/1 73/12/1 72/12/1
f 81/10/1 74/10/1 73/10/1
f 81/12/1 73/12/1 80/12/1
f 82/12/1 75/12/1 74/12/1
f 82/10/1 74/10/1 81/10/1
f 83/12/1 75/12/1 82/12/1
f 84/12/1 77/12/1 76/12/1
f 85/10/1 78/10/1 77/10/1
f 85/12/1 77/12/1 84/12/1
f 86/12/1 79/12/1 78/12/1
f 86/10/1 78/10/1 85/10/1
f 87/12/1 79/12/1 86/12/1
f 88/12/2 89/12/2 93/12/2
f 93/12/2 89/12/2 94/12/2
f 90/12/2 91/12/2 97/12/2
f 97/12/2 91/12/2 98/12/2
f 92/12/2 93/12/2 100/12/2
f 93/10/2 94/10/2 101/10/2
f 100/12/2 93/12/2 101/12/2
f 94/12/2 95/12/2 102/12/2
f 101/10/2 94/10/2 102/10/2
f 102/12/2 95/12/2 103/12/2
f 96/12/2 97/12/2 104/12/2
f 97/10/2 98/10/2 105/10/2
f 104/12/2 97/12/2 105/12/2
f 98/12/2 99/12/2 106/12/2
f 105/10/2 98/10/2 106/10/2
f 106/12/2 99/12/2 107/12/2
f 108/9/2 109/9/2 110/9/2
f 110/9/2 109/9/2 111/9/2
f 111/9/2 109/9/2 112/9/2
f 113/12/2 114/12/2 118/12/2
f 118/12/2 114/12/2 119/12/2
f 115/12/2 116/12/2 122/12/2
f 122/12/2 116/12/2 123/12/2
f 117/12/2 118/12/2 125/12/2
f 119/12/2 120/12/2 126/12/2
f 121/12/2 122/12/2 127/12/2
f 123/12/2 124/12/2 128/12/2
f 126/4/2 127/4/2 130/4/2
f 119/12/2 126/12/2 130/12/2
f 130/4/2 127/4/2 131/4/2
f 125/12/2 118/12/2 132/12/2
f 118/10/2 119/10/2 133/10/2
f 132/12/2 118/12/2 133/12/2
f 119/12/2 130/12/2 134/12/2
f 133/10/2 119/10/2 134/10/2
f 134/12/2 130/12/2 135/12/2
f 131/4/2 127/4/2 136/4/2
f 127/12/2 122/12/2 136/12/2
f 122/10/2 123/10/2 137/10/2
f 136/12/2 122/12/2 137/12/2
f 123/12/2 128/12/2 138/12/2
f 137/10/2 123/10/2 138/10/2
f 128/4/2 129/4/2 139/4/2
f 138/12/2 128/12/2 139/12/2
f 133/12/2 134/12/2 140/12/2
f 140/12/2 134/12/2 141/12/2
f 137/12/2 138/12/2 142/12/2
f 136/4/2 137/4/2 142/4/2
f 138/4/2 139/4/2 143/4/2
f 142/12/2 138/12/2 143/12/2
f 139/4/2 129/4/2 144/4/2
f 143/4/2 139/4/2 144/4/2
f 144/4/2 129/4/2 145/4/2
f 142/4/2 143/4/2 146/4/2
f 131/4/2 136/4/2 146/4/2
f 143/4/2 144/4/2 146/4/2
f 136/4/2 142/4/2 146/4/2
f 146/4/2 144/4/2 147/4/2
f 144/6/2 145/6/2 148/6/2
f 147/4/2 144/4/2 148/4/2
f 148/6/2 145/6/2 149/6/2
f 131/4/2 146/4/2 150/4/2
f 150/4/2 146/4/2 151/4/2
f 148/4/2 149/4/2 152/4/2
f 147/4/2 148/4/2 152/4/2
f 152/4/2 149/4/2 153/4/2
f 150/13/2 151/13/2 154/13/2
f 147/4/2 152/4/2 155/4/2
f 131/4/2 150/4/2 156/4/2
f 154/13/2 155/13/2 156/13/2
f 150/13/2 154/13/2 156/13/2
f 155/4/2 152/4/2 157/4/2
f 156/13/2 155/13/2 157/13/2
f 131/4/2 156/4/2 158/4/2
f 156/4/2 157/4/2 158/4/2
f 157/4/2 152/4/2 159/4/2
f 158/4/2 157/4/2 159/4/2
f 160/11/2 161/11/2 164/11/2
f 162/11/2 163/11/2 167/11/2
f 164/11/2 165/11/2 168/11/2
f 166/11/2 167/11/2 169/11/2
f 170/7/2 171/7/2 172/7/2
f 172/7/2 171/7/2 173/7/2
f 164/11/2 168/11/2 174/11/2
f 160/11/2 164/11/2 174/11/2
f 168/11/2 169/11/2 174/11/2
f 167/11/2 163/11/2 175/11/2
f 174/11/2 169/11/2 175/11/2
f 169/11/2 167/11/2 175/11/2
f 178/11/3 177/11/3 176/11/3
f 179/11/3 177/11/3 178/11/3
f 180/14/3 179/14/3 178/14/3
f 181/14/3 179/14/3 180/14/3
f 182/11/3 181/11/3 180/11/3
f 183/14/3 179/14/3 181/14/3
f 183/11/3 181/11/3 182/11/3
f 184/14/3 183/14/3 182/14/3
f 185/14/3 179/14/3 183/14/3
f 185/14/3 183/14/3 184/14/3
f 186/11/3 185/11/3 184/11/3
f 187/14/3 179/14/3 185/14/3
f 187/11/3 185/11/3 186/11/3
f 188/14/3 187/14/3 186/14/3
f 189/11/3 177/11/3 179/11/3
f 189/14/3 187/14/3 188/14/3
f 189/14/3 179/14/3 187/14/3
f 190/11/3 189/11/3 188/11/3
f 191/11/3 177/11/3 189/11/3
f 191/11/3 189/11/3 190/11/3
f 194/12/3 193/12/3 192/12/3
f 195/12/3 193/12/3 194/12/3
f 198/12/3 197/12/3 196/12/3
f 199/12/3 197/12/3 198/12/3
f 202/12/3 201/12/3 200/12/3
f 203/12/3 201/12/3 202/12/3
f 206/12/3 205/12/3 204/12/3
f 207/12/3 205/12/3 206/12/3
f 210/11/3 209/11/3 208/11/3
f 211/11/3 209/11/3 210/11/3
f 214/11/3 213/11/3 212/11/3
f 215/11/3 213/11/3 214/11/3
f 218/11/3 217/11/3 216/11/3
f 219/11/3 217/11/3 218/11/3
f 222/11/3 221/11/3 220/11/3
f 223/11/3 221/11/3 222/11/3
f 226/7/3 225/7/3 224/7/3
f 227/7/3 225/7/3 226/7/3
f 230/7/3 229/7/3 228/7/3
f 231/7/3 229/7/3 230/7/3
f 232/7/3 229/7/3 231/7/3
f 236/7/3 234/7/3 233/7/3
f 236/7/3 235/7/3 234/7/3
f 237/7/3 235/7/3 236/7/3
f 240/12/3 239/12/3 238/12/3
f 241/12/3 239/12/3 240/12/3
f 244/12/3 243/12/3 242/12/3
f 245/12/3 243/12/3 244/12/3
f 248/12/3 247/12/3 246/12/3
f 249/12/3 247/12/3 248/12/3
f 252/12/3 251/12/3 250/12/3
f 253/12/3 251/12/3 252/12/3
f 254/11/4 255/11/4 256/11/4
f 256/11/4 255/11/4 257/11/4
f 258/11/4 259/11/4 260/11/4
f 260/11/4 259/11/4 261/11/4
f 262/11/4 263/11/4 264/11/4
f 264/11/4 263/11/4 265/11/4
f 266/11/4 267/11/4 268/11/4
f 268/11/4 267/11/4 269/11/4
f 270/12/4 271/12/4 272/12/4
f 272/12/4 271/12/4 273/12/4
f 274/12/4 275/12/4 276/12/4
f 276/12/4 275/12/4 277/12/4
f 278/12/4 279/12/4 280/12/4
f 280/12/4 279/12/4 281/12/4
f 282/12/4 283/12/4 284/12/4
f 284/12/4 283/12/4 285/12/4
f 286/9/4 287/9/4 289/9/4
f 287/12/4 288/12/4 290/12/4
f 289/9/4 287/9/4 290/9/4
f 289/12/4 290/12/4 291/12/4
f 290/12/4 288/12/4 292/12/4
f 291/12/4 290/12/4 292/12/4
f 293/11/4 294/11/4 295/11/4
f 295/11/4 294/11/4 296/11/4
f 296/11/4 294/11/4 298/11/4
f 297/11/4 298/11/4 299/11/4
f 298/11/4 294/11/4 300/11/4
f 299/11/4 298/11/4 300/11/4
f 301/7/4 302/7/4 303/7/4
f 303/7/4 302/7/4 304/7/4
f 305/7/4 306/7/4 307/7/4
f 307/7/4 306/7/4 308/7/4
f 309/4/4 310/4/4 311/4/4
f 311/4/4 310/4/4 312/4/4
f 311/13/4 312/13/4 313/13/4
f 312/4/4 310/4/4 314/4/4
f 313/13/4 312/13/4 314/13/4
f 313/4/4 314/4/4 315/4/4
f 314/4/4 310/4/4 316/4/4
f 315/4/4 314/4/4 316/4/4
f 317/12/4 318/12/4 319/12/4
f 319/12/4 318/12/4 320/12/4
f 321/12/4 322/12/4 323/12/4
f 323/12/4 322/12/4 324/12/4
f 325/12/4 326/12/4 327/12/4
f 327/12/4 326/12/4 328/12/4
f 329/12/4 330/12/4 331/12/4
f 331/12/4 330/12/4 332/12/4
f 333/4/4 334/4/4 337/4/4
f 334/6/4 335/6/4 337/6/4
f 335/4/4 336/4/4 338/4/4
f 337/6/4 335/6/4 338/6/4
f 333/4/4 337/4/4 339/4/4
f 337/4/4 338/4/4 339/4/4
f 338/4/4 336/4/4 340/4/4
f 339/4/4 338/4/4 340/4/4
f 333/4/4 339/4/4 341/4/4
f 339/9/4 340/9/4 341/9/4
f 340/4/4 336/4/4 342/4/4
f 341/9/4 340/9/4 342/9/4
f 333/4/4 341/4/4 343/4/4
f 341/4/4 342/4/4 343/4/4
f 342/4/4 336/4/4 344/4/4
f 343/4/4 342/4/4 344/4/4
f 333/4/4 343/4/4 345/4/4
f 343/6/4 344/6/4 346/6/4
f 345/4/4 343/4/4 346/4/4
f 344/4/4 336/4/4 347/4/4
f 346/6/4 344/6/4 347/6/4
f 347/4/4 336/4/4 348/4/4
f 353/12/5 350/12/5 349/12/5
f 354/12/5 350/12/5 353/12/5
f 355/12/5 352/12/5 351/12/5
f 356/12/5 352/12/5 355/12/5
f 361/12/5 358/12/5 357/12/5
f 362/12/5 358/12/5 361/12/5
f 363/12/5 360/12/5 359/12/5
f 364/12/5 360/12/5 363/12/5
f 369/12/5 366/12/5 365/12/5
f 370/12/5 366/12/5 369/12/5
f 371/12/5 368/12/5 367/12/5
f 372/12/5 368/12/5 371/12/5
f 377/12/5 374/12/5 373/12/5
f 378/12/5 374/12/5 377/12/5
f 379/12/5 376/12/5 375/12/5
f 380/12/5 376/12/5 379/12/5
f 385/12/5 382/12/5 381/12/5
f 386/12/5 382/12/5 385/12/5
f 387/12/5 384/12/5 383/12/5
f 388/12/5 384/12/5 387/12/5
f 393/12/5 390/12/5 389/12/5
f 394/12/5 390/12/5 393/12/5
f 395/12/5 392/12/5 391/12/5
f 396/12/5 392/12/5 395/12/5
f 405/11/5 398/11/5 397/11/5
f 405/14/5 399/14/5 398/14/5
f 406/11/5 400/11/5 399/11/5
f 406/14/5 399/14/5 405/14/5
f 407/14/5 401/14/5 400/14/5
f 407/11/5 400/11/5 406/11/5
f 408/11/5 402/11/5 401/11/5
f 408/14/5 401/14/5 407/14/5
f 409/14/5 403/14/5 402/14/5
f 409/11/5 402/11/5 408/11/5
f 410/11/5 404/11/5 403/11/5
f 410/14/5 403/14/5 409/14/5
f 411/11/5 409/11/5 408/11/5
f 411/11/5 408/11/5 407/11/5
f 411/11/5 410/11/5 409/11/5
f 411/11/5 407/11/5 406/11/5
f 411/11/5 406/11/5 405/11/5
f 411/11/5 405/11/5 397/11/5
f 412/11/5 404/11/5 410/11/5
f 412/11/5 410/11/5 411/11/5
f 413/8/5 412/8/5 411/8/5
f 414/8/5 412/8/5 413/8/5
f 415/11/5 411/11/5 397/11/5
f 416/8/5 413/8/5 411/8/5
f 416/11/5 411/11/5 415/11/5
f 417/9/5 414/9/5 413/9/5
f 417/8/5 413/8/5 416/8/5
f 418/8/5 412/8/5 414/8/5
f 418/9/5 414/9/5 417/9/5
f 419/11/5 404/11/5 412/11/5
f 419/8/5 412/8/5 418/8/5
f 420/11/5 404/11/5 419/11/5
f 421/9/5 418/9/5 417/9/5
f 422/9/5 418/9/5 421/9/5
f 423/9/5 422/9/5 421/9/5
f 424/9/5 422/9/5 423/9/5
f 426/9/5 424/9/5 423/9/5
f 427/9/5 424/9/5 426/9/5
f 429/4/5 426/4/5 425/4/5
f 430/9/5 427/9/5 426/9/5
f 430/4/5 426/4/5 429/4/5
f 431/4/5 428/4/5 427/4/5
f 431/9/5 427/9/5 430/9/5
f 432/4/5 428/4/5 431/4/5
f 433/9/5 431/9/5 430/9/5
f 434/9/5 431/9/5 433/9/5
f 435/9/5 434/9/5 433/9/5
f 436/9/5 434/9/5 435/9/5
f 438/9/5 436/9/5 435/9/5
f 439/9/5 436/9/5 438/9/5
f 441/4/5 439/4/5 438/4/5
f 441/4/5 440/4/5 439/4/5
f 441/4/5 438/4/5 437/4/5
f 442/4/5 440/4/5 441/4/5
f 447/11/5 444/11/5 443/11/5
f 448/11/5 444/11/5 447/11/5
f 449/11/5 446/11/5 445/11/5
f 450/11/5 446/11/5 449/11/5
f 455/11/5 452/11/5 451/11/5
f 456/11/5 452/11/5 455/11/5
f 457/11/5 454/11/5 453/11/5
f 458/11/5 454/11/5 457/11/5
f 463/11/5 460/11/5 459/11/5
f 464/11/5 460/11/5 463/11/5
f 465/11/5 462/11/5 461/11/5
f 466/11/5 462/11/5 465/11/5
f 471/11/5 468/11/5 467/11/5
f 472/11/5 468/11/5 471/11/5
f 473/11/5 470/11/5 469/11/5
f 474/11/5 470/11/5 473/11/5
f 477/7/5 476/7/5 475/7/5
f 478/7/5 476/7/5 477/7/5
f 483/7/5 480/7/5 479/7/5
f 484/7/5 480/7/5 483/7/5
f 485/7/5 482/7/5 481/7/5
f 486/7/5 482/7/5 485/7/5
f 487/9/6 488/9/6 490/9/6
f 488/9/6 489/9/6 490/9/6
f 490/9/6 489/9/6 491/9/6
f 492/4/6 493/4/6 496/4/6
f 494/4/6 495/4/6 496/4/6
f 493/4/6 494/4/6 496/4/6
f 496/4/6 495/4/6 497/4/6
f 498/7/6 499/7/6 502/7/6
f 502/7/6 499/7/6 503/7/6
f 500/7/6 501/7/6 504/7/6
f 504/7/6 501/7/6 505/7/6
f 506/4/6 507/4/6 508/4/6
f 508/4/6 507/4/6 509/4/6
f 510/11/6 511/11/6 512/11/6
f 512/11/6 511/11/6 513/11/6
