# MagicaVoxel @ Ephtracy

# group
g mini_azul

# material
mtllib mini_azul.mtl
usemtl palette

# normals
vn -1 0 0
vn 1 0 0
vn 0 0 1
vn 0 0 -1
vn 0 -1 0
vn 0 1 0

# texcoords
vt 0.513672 0.5
vt 0.591797 0.5
vt 0.841797 0.5
vt 0.958984 0.5
vt 0.966797 0.5
vt 0.970703 0.5
vt 0.974609 0.5
vt 0.978516 0.5
vt 0.986328 0.5
vt 0.990234 0.5

# verts
v -6 6 -4
v -6 6 -5
v -6 8 -4
v -6 8 -5
v -5 0 8
v -5 0 5
v -5 0 -6
v -5 0 -9
v -5 1 9
v -5 1 8
v -5 1 5
v -5 1 4
v -5 1 -5
v -5 1 -6
v -5 1 -9
v -5 1 -10
v -5 2 11
v -5 2 9
v -5 2 4
v -5 2 -5
v -5 2 -10
v -5 2 -11
v -5 3 11
v -5 3 9
v -5 3 -10
v -5 3 -11
v -5 4 9
v -5 4 8
v -5 4 5
v -5 4 4
v -5 4 -5
v -5 4 -6
v -5 4 -9
v -5 4 -10
v -5 5 11
v -5 5 10
v -5 5 8
v -5 5 5
v -5 5 -6
v -5 5 -9
v -5 5 -10
v -5 5 -11
v -5 6 -4
v -5 6 -5
v -5 6 -10
v -5 6 -11
v -5 7 11
v -5 7 10
v -5 7 6
v -5 7 4
v -5 7 -4
v -5 7 -5
v -5 7 -11
v -5 8 -4
v -5 8 -5
v -5 10 4
v -5 10 -4
v -5 11 6
v -5 11 -5
v 3 4 4
v 3 4 -2
v 3 7 4
v 3 7 -2
v 4 0 8
v 4 0 5
v 4 0 -6
v 4 0 -9
v 4 1 8
v 4 1 5
v 4 1 -6
v 4 1 -9
v -4 0 8
v -4 0 5
v -4 0 -6
v -4 0 -9
v -4 1 8
v -4 1 5
v -4 1 -6
v -4 1 -9
v -3 4 4
v -3 4 -2
v -3 7 4
v -3 7 -2
v 5 0 8
v 5 0 5
v 5 0 -6
v 5 0 -9
v 5 1 9
v 5 1 8
v 5 1 5
v 5 1 4
v 5 1 -5
v 5 1 -6
v 5 1 -9
v 5 1 -10
v 5 2 11
v 5 2 9
v 5 2 4
v 5 2 -5
v 5 2 -10
v 5 2 -11
v 5 3 11
v 5 3 9
v 5 3 -10
v 5 3 -11
v 5 4 9
v 5 4 8
v 5 4 5
v 5 4 4
v 5 4 -5
v 5 4 -6
v 5 4 -9
v 5 4 -10
v 5 5 11
v 5 5 10
v 5 5 8
v 5 5 5
v 5 5 -6
v 5 5 -9
v 5 5 -10
v 5 5 -11
v 5 6 -4
v 5 6 -5
v 5 6 -10
v 5 6 -11
v 5 7 11
v 5 7 10
v 5 7 6
v 5 7 4
v 5 7 -4
v 5 7 -5
v 5 7 -11
v 5 8 -4
v 5 8 -5
v 5 10 4
v 5 10 -4
v 5 11 6
v 5 11 -5
v 6 6 -4
v 6 6 -5
v 6 8 -4
v 6 8 -5
v -5 2 11
v -5 3 11
v -5 5 11
v -5 7 11
v -4 5 11
v -4 7 11
v -2 4 11
v -2 6 11
v 2 4 11
v 2 6 11
v 4 5 11
v 4 7 11
v 5 2 11
v 5 3 11
v 5 5 11
v 5 7 11
v -5 1 9
v -5 2 9
v -4 1 9
v -4 2 9
v 4 1 9
v 4 2 9
v 5 1 9
v 5 2 9
v -5 0 8
v -5 1 8
v -4 0 8
v -4 1 8
v 4 0 8
v 4 1 8
v 5 0 8
v 5 1 8
v -5 7 6
v -5 11 6
v -4 7 6
v -4 10 6
v 4 7 6
v 4 10 6
v 5 7 6
v 5 11 6
v -3 4 -2
v -3 7 -2
v 3 4 -2
v 3 7 -2
v -6 6 -4
v -6 8 -4
v -5 6 -4
v -5 7 -4
v -5 8 -4
v 5 6 -4
v 5 7 -4
v 5 8 -4
v 6 6 -4
v 6 8 -4
v -5 0 -6
v -5 1 -6
v -4 0 -6
v -4 1 -6
v 4 0 -6
v 4 1 -6
v 5 0 -6
v 5 1 -6
v -5 0 5
v -5 1 5
v -4 0 5
v -4 1 5
v 4 0 5
v 4 1 5
v 5 0 5
v 5 1 5
v -3 4 4
v -3 7 4
v -1 4 4
v -1 7 4
v 1 4 4
v 1 7 4
v 3 4 4
v 3 7 4
v -6 6 -5
v -6 8 -5
v -5 6 -5
v -5 7 -5
v -5 8 -5
v -5 11 -5
v -4 7 -5
v -4 10 -5
v 4 7 -5
v 4 10 -5
v 5 6 -5
v 5 7 -5
v 5 8 -5
v 5 11 -5
v 6 6 -5
v 6 8 -5
v -5 0 -9
v -5 1 -9
v -4 0 -9
v -4 1 -9
v 4 0 -9
v 4 1 -9
v 5 0 -9
v 5 1 -9
v -5 1 -10
v -5 2 -10
v -4 1 -10
v -4 2 -10
v 4 1 -10
v 4 2 -10
v 5 1 -10
v 5 2 -10
v -5 2 -11
v -5 3 -11
v -5 5 -11
v -5 6 -11
v -5 7 -11
v -2 5 -11
v -2 6 -11
v -1 3 -11
v -1 5 -11
v 1 3 -11
v 1 5 -11
v 2 5 -11
v 2 6 -11
v 5 2 -11
v 5 3 -11
v 5 5 -11
v 5 6 -11
v 5 7 -11
v -5 0 8
v -4 0 8
v 4 0 8
v 5 0 8
v -5 0 5
v -4 0 5
v 4 0 5
v 5 0 5
v -5 0 -6
v -4 0 -6
v 4 0 -6
v 5 0 -6
v -5 0 -9
v -4 0 -9
v 4 0 -9
v 5 0 -9
v -5 1 9
v -4 1 9
v 4 1 9
v 5 1 9
v -5 1 8
v -4 1 8
v 4 1 8
v 5 1 8
v -5 1 5
v -4 1 5
v 4 1 5
v 5 1 5
v -5 1 4
v -4 1 4
v 4 1 4
v 5 1 4
v -5 1 -5
v -4 1 -5
v 4 1 -5
v 5 1 -5
v -5 1 -6
v -4 1 -6
v 4 1 -6
v 5 1 -6
v -5 1 -9
v -4 1 -9
v 4 1 -9
v 5 1 -9
v -5 1 -10
v -4 1 -10
v 4 1 -10
v 5 1 -10
v -5 2 11
v 5 2 11
v -5 2 9
v -4 2 9
v 4 2 9
v 5 2 9
v -5 2 -10
v -4 2 -10
v 4 2 -10
v 5 2 -10
v -5 2 -11
v 5 2 -11
v -6 6 -4
v -5 6 -4
v 5 6 -4
v 6 6 -4
v -6 6 -5
v -5 6 -5
v 5 6 -5
v 6 6 -5
v -3 7 4
v -1 7 4
v 1 7 4
v 3 7 4
v -3 7 -2
v 3 7 -2
v -3 4 4
v -1 4 4
v 1 4 4
v 3 4 4
v -3 4 -2
v 3 4 -2
v -5 7 11
v -4 7 11
v 4 7 11
v 5 7 11
v -5 7 10
v -4 7 10
v 4 7 10
v 5 7 10
v -5 7 6
v -4 7 6
v 4 7 6
v 5 7 6
v -5 7 -5
v -4 7 -5
v 4 7 -5
v 5 7 -5
v -5 7 -11
v 5 7 -11
v -6 8 -4
v -5 8 -4
v 5 8 -4
v 6 8 -4
v -6 8 -5
v -5 8 -5
v 5 8 -5
v 6 8 -5
v -5 11 6
v 5 11 6
v -5 11 -5
v 5 11 -5

# faces
f 3/5/1 2/5/1 1/5/1
f 4/5/1 2/5/1 3/5/1
f 10/9/1 6/9/1 5/9/1
f 11/9/1 6/9/1 10/9/1
f 14/9/1 8/9/1 7/9/1
f 15/9/1 8/9/1 14/9/1
f 18/9/1 10/9/1 9/9/1
f 19/5/1 13/5/1 12/5/1
f 19/9/1 12/9/1 11/9/1
f 20/9/1 14/9/1 13/9/1
f 20/5/1 13/5/1 19/5/1
f 21/9/1 16/9/1 15/9/1
f 23/5/1 18/5/1 17/5/1
f 24/9/1 10/9/1 18/9/1
f 24/5/1 18/5/1 23/5/1
f 25/5/1 22/5/1 21/5/1
f 25/9/1 21/9/1 15/9/1
f 26/5/1 22/5/1 25/5/1
f 27/9/1 10/9/1 24/9/1
f 27/2/1 24/2/1 23/2/1
f 28/7/1 11/7/1 10/7/1
f 28/9/1 10/9/1 27/9/1
f 29/9/1 19/9/1 11/9/1
f 29/7/1 11/7/1 28/7/1
f 30/2/1 20/2/1 19/2/1
f 30/9/1 19/9/1 29/9/1
f 31/9/1 14/9/1 20/9/1
f 31/2/1 20/2/1 30/2/1
f 32/7/1 15/7/1 14/7/1
f 32/9/1 14/9/1 31/9/1
f 33/9/1 25/9/1 15/9/1
f 33/7/1 15/7/1 32/7/1
f 34/2/1 26/2/1 25/2/1
f 34/9/1 25/9/1 33/9/1
f 35/2/1 27/2/1 23/2/1
f 35/2/1 28/2/1 27/2/1
f 36/2/1 28/2/1 35/2/1
f 37/9/1 29/9/1 28/9/1
f 37/2/1 28/2/1 36/2/1
f 38/2/1 30/2/1 29/2/1
f 38/9/1 29/9/1 37/9/1
f 38/2/1 31/2/1 30/2/1
f 38/2/1 32/2/1 31/2/1
f 39/9/1 33/9/1 32/9/1
f 39/2/1 32/2/1 38/2/1
f 40/2/1 34/2/1 33/2/1
f 40/9/1 33/9/1 39/9/1
f 41/2/1 26/2/1 34/2/1
f 41/2/1 34/2/1 40/2/1
f 42/2/1 26/2/1 41/2/1
f 43/2/1 37/2/1 36/2/1
f 43/2/1 40/2/1 39/2/1
f 43/2/1 39/2/1 38/2/1
f 43/2/1 41/2/1 40/2/1
f 43/2/1 38/2/1 37/2/1
f 44/2/1 41/2/1 43/2/1
f 45/4/1 42/4/1 41/4/1
f 45/2/1 41/2/1 44/2/1
f 46/4/1 42/4/1 45/4/1
f 47/3/1 36/3/1 35/3/1
f 48/2/1 43/2/1 36/2/1
f 48/3/1 36/3/1 47/3/1
f 49/2/1 43/2/1 48/2/1
f 50/2/1 43/2/1 49/2/1
f 51/2/1 43/2/1 50/2/1
f 52/2/1 46/2/1 45/2/1
f 52/2/1 45/2/1 44/2/1
f 53/2/1 46/2/1 52/2/1
f 54/10/1 51/10/1 50/10/1
f 56/2/1 50/2/1 49/2/1
f 56/10/1 54/10/1 50/10/1
f 57/2/1 55/2/1 54/2/1
f 57/10/1 54/10/1 56/10/1
f 58/2/1 56/2/1 49/2/1
f 58/2/1 57/2/1 56/2/1
f 59/2/1 55/2/1 57/2/1
f 59/2/1 57/2/1 58/2/1
f 62/1/1 61/1/1 60/1/1
f 63/1/1 61/1/1 62/1/1
f 68/9/1 65/9/1 64/9/1
f 69/9/1 65/9/1 68/9/1
f 70/9/1 67/9/1 66/9/1
f 71/9/1 67/9/1 70/9/1
f 72/9/2 73/9/2 76/9/2
f 76/9/2 73/9/2 77/9/2
f 74/9/2 75/9/2 78/9/2
f 78/9/2 75/9/2 79/9/2
f 80/1/2 81/1/2 82/1/2
f 82/1/2 81/1/2 83/1/2
f 84/9/2 85/9/2 89/9/2
f 89/9/2 85/9/2 90/9/2
f 86/9/2 87/9/2 93/9/2
f 93/9/2 87/9/2 94/9/2
f 88/9/2 89/9/2 97/9/2
f 91/5/2 92/5/2 98/5/2
f 90/9/2 91/9/2 98/9/2
f 92/9/2 93/9/2 99/9/2
f 98/5/2 92/5/2 99/5/2
f 94/9/2 95/9/2 100/9/2
f 96/5/2 97/5/2 102/5/2
f 97/9/2 89/9/2 103/9/2
f 102/5/2 97/5/2 103/5/2
f 100/5/2 101/5/2 104/5/2
f 94/9/2 100/9/2 104/9/2
f 104/5/2 101/5/2 105/5/2
f 103/9/2 89/9/2 106/9/2
f 102/2/2 103/2/2 106/2/2
f 89/7/2 90/7/2 107/7/2
f 106/9/2 89/9/2 107/9/2
f 90/9/2 98/9/2 108/9/2
f 107/7/2 90/7/2 108/7/2
f 98/2/2 99/2/2 109/2/2
f 108/9/2 98/9/2 109/9/2
f 99/9/2 93/9/2 110/9/2
f 109/2/2 99/2/2 110/2/2
f 93/7/2 94/7/2 111/7/2
f 110/9/2 93/9/2 111/9/2
f 94/9/2 104/9/2 112/9/2
f 111/7/2 94/7/2 112/7/2
f 104/2/2 105/2/2 113/2/2
f 112/9/2 104/9/2 113/9/2
f 102/2/2 106/2/2 114/2/2
f 106/2/2 107/2/2 114/2/2
f 114/2/2 107/2/2 115/2/2
f 107/9/2 108/9/2 116/9/2
f 115/2/2 107/2/2 116/2/2
f 108/2/2 109/2/2 117/2/2
f 116/9/2 108/9/2 117/9/2
f 109/2/2 110/2/2 117/2/2
f 110/2/2 111/2/2 117/2/2
f 111/9/2 112/9/2 118/9/2
f 117/2/2 111/2/2 118/2/2
f 112/2/2 113/2/2 119/2/2
f 118/9/2 112/9/2 119/9/2
f 113/2/2 105/2/2 120/2/2
f 119/2/2 113/2/2 120/2/2
f 120/2/2 105/2/2 121/2/2
f 115/2/2 116/2/2 122/2/2
f 118/2/2 119/2/2 122/2/2
f 117/2/2 118/2/2 122/2/2
f 119/2/2 120/2/2 122/2/2
f 116/2/2 117/2/2 122/2/2
f 122/2/2 120/2/2 123/2/2
f 120/4/2 121/4/2 124/4/2
f 123/2/2 120/2/2 124/2/2
f 124/4/2 121/4/2 125/4/2
f 114/3/2 115/3/2 126/3/2
f 115/2/2 122/2/2 127/2/2
f 126/3/2 115/3/2 127/3/2
f 127/2/2 122/2/2 128/2/2
f 128/2/2 122/2/2 129/2/2
f 129/2/2 122/2/2 130/2/2
f 124/2/2 125/2/2 131/2/2
f 123/2/2 124/2/2 131/2/2
f 131/2/2 125/2/2 132/2/2
f 129/10/2 130/10/2 133/10/2
f 128/2/2 129/2/2 135/2/2
f 129/10/2 133/10/2 135/10/2
f 133/2/2 134/2/2 136/2/2
f 135/10/2 133/10/2 136/10/2
f 128/2/2 135/2/2 137/2/2
f 135/2/2 136/2/2 137/2/2
f 136/2/2 134/2/2 138/2/2
f 137/2/2 136/2/2 138/2/2
f 139/5/2 140/5/2 141/5/2
f 141/5/2 140/5/2 142/5/2
f 147/2/3 145/2/3 144/2/3
f 147/3/3 146/3/3 145/3/3
f 148/3/3 146/3/3 147/3/3
f 149/2/3 147/2/3 144/2/3
f 149/2/3 148/2/3 147/2/3
f 150/2/3 148/2/3 149/2/3
f 151/2/3 149/2/3 144/2/3
f 151/4/3 150/4/3 149/4/3
f 152/2/3 148/2/3 150/2/3
f 152/4/3 150/4/3 151/4/3
f 153/2/3 152/2/3 151/2/3
f 154/2/3 148/2/3 152/2/3
f 154/2/3 152/2/3 153/2/3
f 155/5/3 144/5/3 143/5/3
f 156/2/3 151/2/3 144/2/3
f 156/5/3 144/5/3 155/5/3
f 156/2/3 153/2/3 151/2/3
f 157/3/3 154/3/3 153/3/3
f 157/2/3 153/2/3 156/2/3
f 158/3/3 154/3/3 157/3/3
f 161/9/3 160/9/3 159/9/3
f 162/9/3 160/9/3 161/9/3
f 163/4/3 162/4/3 161/4/3
f 164/4/3 162/4/3 163/4/3
f 165/9/3 164/9/3 163/9/3
f 166/9/3 164/9/3 165/9/3
f 169/9/3 168/9/3 167/9/3
f 170/9/3 168/9/3 169/9/3
f 173/9/3 172/9/3 171/9/3
f 174/9/3 172/9/3 173/9/3
f 177/2/3 176/2/3 175/2/3
f 178/2/3 176/2/3 177/2/3
f 179/10/3 178/10/3 177/10/3
f 180/2/3 176/2/3 178/2/3
f 180/10/3 178/10/3 179/10/3
f 181/2/3 180/2/3 179/2/3
f 182/2/3 176/2/3 180/2/3
f 182/2/3 180/2/3 181/2/3
f 185/4/3 184/4/3 183/4/3
f 186/4/3 184/4/3 185/4/3
f 189/5/3 188/5/3 187/5/3
f 190/5/3 188/5/3 189/5/3
f 191/5/3 188/5/3 190/5/3
f 195/5/3 193/5/3 192/5/3
f 195/5/3 194/5/3 193/5/3
f 196/5/3 194/5/3 195/5/3
f 199/9/3 198/9/3 197/9/3
f 200/9/3 198/9/3 199/9/3
f 203/9/3 202/9/3 201/9/3
f 204/9/3 202/9/3 203/9/3
f 205/9/4 206/9/4 207/9/4
f 207/9/4 206/9/4 208/9/4
f 209/9/4 210/9/4 211/9/4
f 211/9/4 210/9/4 212/9/4
f 213/4/4 214/4/4 215/4/4
f 215/4/4 214/4/4 216/4/4
f 215/1/4 216/1/4 217/1/4
f 217/1/4 216/1/4 218/1/4
f 217/4/4 218/4/4 219/4/4
f 219/4/4 218/4/4 220/4/4
f 221/5/4 222/5/4 223/5/4
f 223/5/4 222/5/4 224/5/4
f 224/5/4 222/5/4 225/5/4
f 225/2/4 226/2/4 227/2/4
f 224/2/4 225/2/4 227/2/4
f 227/2/4 226/2/4 228/2/4
f 227/10/4 228/10/4 229/10/4
f 228/2/4 226/2/4 230/2/4
f 229/10/4 228/10/4 230/10/4
f 229/2/4 230/2/4 232/2/4
f 232/2/4 230/2/4 233/2/4
f 230/2/4 226/2/4 234/2/4
f 233/2/4 230/2/4 234/2/4
f 232/5/4 233/5/4 235/5/4
f 231/5/4 232/5/4 235/5/4
f 235/5/4 233/5/4 236/5/4
f 237/9/4 238/9/4 239/9/4
f 239/9/4 238/9/4 240/9/4
f 241/9/4 242/9/4 243/9/4
f 243/9/4 242/9/4 244/9/4
f 245/9/4 246/9/4 247/9/4
f 247/9/4 246/9/4 248/9/4
f 247/4/4 248/4/4 249/4/4
f 249/4/4 248/4/4 250/4/4
f 249/9/4 250/9/4 251/9/4
f 251/9/4 250/9/4 252/9/4
f 254/2/4 255/2/4 258/2/4
f 255/4/4 256/4/4 258/4/4
f 256/2/4 257/2/4 259/2/4
f 258/4/4 256/4/4 259/4/4
f 253/5/4 254/5/4 260/5/4
f 254/2/4 258/2/4 260/2/4
f 258/2/4 259/2/4 260/2/4
f 260/2/4 259/2/4 261/2/4
f 253/5/4 260/5/4 262/5/4
f 260/9/4 261/9/4 262/9/4
f 261/2/4 259/2/4 263/2/4
f 262/9/4 261/9/4 263/9/4
f 262/2/4 263/2/4 264/2/4
f 263/2/4 259/2/4 264/2/4
f 259/2/4 257/2/4 265/2/4
f 264/2/4 259/2/4 265/2/4
f 253/5/4 262/5/4 266/5/4
f 262/2/4 264/2/4 267/2/4
f 266/5/4 262/5/4 267/5/4
f 264/4/4 265/4/4 268/4/4
f 267/2/4 264/2/4 268/2/4
f 265/2/4 257/2/4 269/2/4
f 268/4/4 265/4/4 269/4/4
f 269/2/4 257/2/4 270/2/4
f 275/9/5 272/9/5 271/9/5
f 276/9/5 272/9/5 275/9/5
f 277/9/5 274/9/5 273/9/5
f 278/9/5 274/9/5 277/9/5
f 283/9/5 280/9/5 279/9/5
f 284/9/5 280/9/5 283/9/5
f 285/9/5 282/9/5 281/9/5
f 286/9/5 282/9/5 285/9/5
f 291/9/5 288/9/5 287/9/5
f 292/4/5 289/4/5 288/4/5
f 292/9/5 288/9/5 291/9/5
f 293/9/5 290/9/5 289/9/5
f 293/4/5 289/4/5 292/4/5
f 294/9/5 290/9/5 293/9/5
f 296/4/5 293/4/5 292/4/5
f 297/4/5 293/4/5 296/4/5
f 299/9/5 296/9/5 295/9/5
f 300/4/5 297/4/5 296/4/5
f 300/9/5 296/9/5 299/9/5
f 301/9/5 298/9/5 297/9/5
f 301/4/5 297/4/5 300/4/5
f 302/9/5 298/9/5 301/9/5
f 303/5/5 300/5/5 299/5/5
f 304/4/5 301/4/5 300/4/5
f 304/5/5 300/5/5 303/5/5
f 305/5/5 302/5/5 301/5/5
f 305/4/5 301/4/5 304/4/5
f 306/5/5 302/5/5 305/5/5
f 307/9/5 304/9/5 303/9/5
f 308/4/5 305/4/5 304/4/5
f 308/9/5 304/9/5 307/9/5
f 309/9/5 306/9/5 305/9/5
f 309/4/5 305/4/5 308/4/5
f 310/9/5 306/9/5 309/9/5
f 312/4/5 309/4/5 308/4/5
f 313/4/5 309/4/5 312/4/5
f 315/9/5 312/9/5 311/9/5
f 316/4/5 313/4/5 312/4/5
f 316/9/5 312/9/5 315/9/5
f 317/9/5 314/9/5 313/9/5
f 317/4/5 313/4/5 316/4/5
f 318/9/5 314/9/5 317/9/5
f 321/5/5 320/5/5 319/5/5
f 322/5/5 320/5/5 321/5/5
f 323/5/5 320/5/5 322/5/5
f 324/5/5 320/5/5 323/5/5
f 329/5/5 326/5/5 325/5/5
f 329/5/5 328/5/5 327/5/5
f 329/5/5 327/5/5 326/5/5
f 330/5/5 328/5/5 329/5/5
f 335/5/5 332/5/5 331/5/5
f 336/5/5 332/5/5 335/5/5
f 337/5/5 334/5/5 333/5/5
f 338/5/5 334/5/5 337/5/5
f 343/10/5 340/10/5 339/10/5
f 343/10/5 342/10/5 341/10/5
f 343/10/5 341/10/5 340/10/5
f 344/10/5 342/10/5 343/10/5
f 345/4/6 346/4/6 349/4/6
f 347/4/6 348/4/6 349/4/6
f 346/4/6 347/4/6 349/4/6
f 349/4/6 348/4/6 350/4/6
f 351/3/6 352/3/6 355/3/6
f 352/2/6 353/2/6 356/2/6
f 355/3/6 352/3/6 356/3/6
f 353/3/6 354/3/6 357/3/6
f 356/2/6 353/2/6 357/2/6
f 357/3/6 354/3/6 358/3/6
f 355/2/6 356/2/6 359/2/6
f 356/2/6 357/2/6 359/2/6
f 357/2/6 358/2/6 359/2/6
f 359/2/6 358/2/6 360/2/6
f 360/2/6 358/2/6 361/2/6
f 361/2/6 358/2/6 362/2/6
f 363/2/6 364/2/6 367/2/6
f 365/2/6 366/2/6 367/2/6
f 364/2/6 365/2/6 367/2/6
f 367/2/6 366/2/6 368/2/6
f 369/5/6 370/5/6 373/5/6
f 373/5/6 370/5/6 374/5/6
f 371/5/6 372/5/6 375/5/6
f 375/5/6 372/5/6 376/5/6
f 377/2/6 378/2/6 379/2/6
f 379/2/6 378/2/6 380/2/6
