# MagicaVoxel @ Ephtracy

# group
g sedan_azul

# material
mtllib sedan_azul.mtl
usemtl palette

# normals
vn -1 0 0
vn 1 0 0
vn 0 0 1
vn 0 0 -1
vn 0 -1 0
vn 0 1 0

# texcoords
vt 0.513672 0.5
vt 0.677734 0.5
vt 0.841797 0.5
vt 0.923828 0.5
vt 0.958984 0.5
vt 0.962891 0.5
vt 0.966797 0.5
vt 0.970703 0.5
vt 0.974609 0.5
vt 0.978516 0.5
vt 0.986328 0.5
vt 0.990234 0.5

# verts
v -7 6 -4
v -7 6 -5
v -7 8 -4
v -7 8 -5
v -6 0 10
v -6 0 7
v -6 0 -8
v -6 0 -11
v -6 1 13
v -6 1 11
v -6 1 10
v -6 1 7
v -6 1 6
v -6 1 -7
v -6 1 -8
v -6 1 -11
v -6 1 -12
v -6 1 -14
v -6 2 15
v -6 2 13
v -6 2 6
v -6 2 -7
v -6 2 -14
v -6 2 -15
v -6 3 15
v -6 3 11
v -6 3 -12
v -6 3 -15
v -6 4 11
v -6 4 10
v -6 4 7
v -6 4 6
v -6 4 -7
v -6 4 -8
v -6 4 -11
v -6 4 -12
v -6 5 15
v -6 5 14
v -6 5 10
v -6 5 7
v -6 5 3
v -6 5 1
v -6 5 -8
v -6 5 -11
v -6 5 -14
v -6 5 -15
v -6 6 3
v -6 6 1
v -6 6 -4
v -6 6 -5
v -6 6 -14
v -6 6 -15
v -6 7 15
v -6 7 14
v -6 7 8
v -6 7 6
v -6 7 4
v -6 7 3
v -6 7 -4
v -6 7 -5
v -6 7 -15
v -6 8 -4
v -6 8 -5
v -6 10 6
v -6 10 4
v -6 10 3
v -6 10 -4
v -6 11 8
v -6 11 -5
v 4 4 6
v 4 4 -2
v 4 7 6
v 4 7 -2
v 5 0 10
v 5 0 7
v 5 0 -8
v 5 0 -11
v 5 1 10
v 5 1 7
v 5 1 -8
v 5 1 -11
v -5 0 10
v -5 0 7
v -5 0 -8
v -5 0 -11
v -5 1 10
v -5 1 7
v -5 1 -8
v -5 1 -11
v -4 4 6
v -4 4 -2
v -4 7 6
v -4 7 -2
v 6 0 10
v 6 0 7
v 6 0 -8
v 6 0 -11
v 6 1 13
v 6 1 11
v 6 1 10
v 6 1 7
v 6 1 6
v 6 1 -7
v 6 1 -8
v 6 1 -11
v 6 1 -12
v 6 1 -14
v 6 2 15
v 6 2 13
v 6 2 6
v 6 2 -7
v 6 2 -14
v 6 2 -15
v 6 3 15
v 6 3 11
v 6 3 -12
v 6 3 -15
v 6 4 11
v 6 4 10
v 6 4 7
v 6 4 6
v 6 4 -7
v 6 4 -8
v 6 4 -11
v 6 4 -12
v 6 5 15
v 6 5 14
v 6 5 10
v 6 5 7
v 6 5 -8
v 6 5 -11
v 6 5 -14
v 6 5 -15
v 6 6 -4
v 6 6 -5
v 6 6 -14
v 6 6 -15
v 6 7 15
v 6 7 14
v 6 7 8
v 6 7 6
v 6 7 4
v 6 7 3
v 6 7 -4
v 6 7 -5
v 6 7 -15
v 6 8 -4
v 6 8 -5
v 6 10 6
v 6 10 4
v 6 10 3
v 6 10 -4
v 6 11 8
v 6 11 -5
v 7 6 -4
v 7 6 -5
v 7 8 -4
v 7 8 -5
v -6 2 15
v -6 3 15
v -6 5 15
v -6 7 15
v -5 5 15
v -5 7 15
v -3 4 15
v -3 6 15
v 3 4 15
v 3 6 15
v 5 5 15
v 5 7 15
v 6 2 15
v 6 3 15
v 6 5 15
v 6 7 15
v -6 1 13
v -6 2 13
v 6 1 13
v 6 2 13
v -6 0 10
v -6 1 10
v -5 0 10
v -5 1 10
v 5 0 10
v 5 1 10
v 6 0 10
v 6 1 10
v -6 7 8
v -6 11 8
v -4 8 8
v -4 10 8
v 4 8 8
v 4 10 8
v 6 7 8
v 6 11 8
v -4 4 -2
v -4 7 -2
v 4 4 -2
v 4 7 -2
v -7 6 -4
v -7 8 -4
v -6 6 -4
v -6 7 -4
v -6 8 -4
v 6 6 -4
v 6 7 -4
v 6 8 -4
v 7 6 -4
v 7 8 -4
v -6 0 -8
v -6 1 -8
v -5 0 -8
v -5 1 -8
v 5 0 -8
v 5 1 -8
v 6 0 -8
v 6 1 -8
v -6 0 7
v -6 1 7
v -5 0 7
v -5 1 7
v 5 0 7
v 5 1 7
v 6 0 7
v 6 1 7
v -4 4 6
v -4 7 6
v -2 4 6
v -2 7 6
v 2 4 6
v 2 7 6
v 4 4 6
v 4 7 6
v -7 6 -5
v -7 8 -5
v -6 6 -5
v -6 7 -5
v -6 8 -5
v -6 11 -5
v -5 7 -5
v -5 10 -5
v 5 7 -5
v 5 10 -5
v 6 6 -5
v 6 7 -5
v 6 8 -5
v 6 11 -5
v 7 6 -5
v 7 8 -5
v -6 0 -11
v -6 1 -11
v -5 0 -11
v -5 1 -11
v 5 0 -11
v 5 1 -11
v 6 0 -11
v 6 1 -11
v -6 1 -14
v -6 2 -14
v 6 1 -14
v 6 2 -14
v -6 2 -15
v -6 3 -15
v -6 5 -15
v -6 6 -15
v -6 7 -15
v -3 5 -15
v -3 6 -15
v -2 3 -15
v -2 5 -15
v 2 3 -15
v 2 5 -15
v 3 5 -15
v 3 6 -15
v 6 2 -15
v 6 3 -15
v 6 5 -15
v 6 6 -15
v 6 7 -15
v -6 0 10
v -5 0 10
v 5 0 10
v 6 0 10
v -6 0 7
v -5 0 7
v 5 0 7
v 6 0 7
v -6 0 -8
v -5 0 -8
v 5 0 -8
v 6 0 -8
v -6 0 -11
v -5 0 -11
v 5 0 -11
v 6 0 -11
v -6 1 13
v 6 1 13
v -5 1 12
v 5 1 12
v -6 1 11
v -5 1 11
v 5 1 11
v 6 1 11
v -6 1 10
v -5 1 10
v 5 1 10
v 6 1 10
v -6 1 7
v -5 1 7
v 5 1 7
v 6 1 7
v -6 1 6
v -5 1 6
v 5 1 6
v 6 1 6
v -6 1 -7
v -5 1 -7
v 5 1 -7
v 6 1 -7
v -6 1 -8
v -5 1 -8
v 5 1 -8
v 6 1 -8
v -6 1 -11
v -5 1 -11
v 5 1 -11
v 6 1 -11
v -6 1 -12
v -5 1 -12
v 5 1 -12
v 6 1 -12
v -5 1 -13
v 5 1 -13
v -6 1 -14
v 6 1 -14
v -6 2 15
v 6 2 15
v -6 2 13
v 6 2 13
v -6 2 -14
v 6 2 -14
v -6 2 -15
v 6 2 -15
v -7 6 -4
v -6 6 -4
v 6 6 -4
v 7 6 -4
v -7 6 -5
v -6 6 -5
v 6 6 -5
v 7 6 -5
v -4 7 6
v -2 7 6
v 2 7 6
v 4 7 6
v -4 7 -2
v 4 7 -2
v -4 4 6
v -2 4 6
v 2 4 6
v 4 4 6
v -4 4 -2
v 4 4 -2
v -6 7 15
v -5 7 15
v 5 7 15
v 6 7 15
v -6 7 14
v -5 7 14
v 5 7 14
v 6 7 14
v -6 7 8
v 6 7 8
v -6 7 -5
v -5 7 -5
v 5 7 -5
v 6 7 -5
v -6 7 -15
v 6 7 -15
v -7 8 -4
v -6 8 -4
v 6 8 -4
v 7 8 -4
v -7 8 -5
v -6 8 -5
v 6 8 -5
v 7 8 -5
v -6 11 8
v 6 11 8
v -6 11 -5
v 6 11 -5

# faces
f 3/7/1 2/7/1 1/7/1
f 4/7/1 2/7/1 3/7/1
f 11/11/1 6/11/1 5/11/1
f 12/11/1 6/11/1 11/11/1
f 15/11/1 8/11/1 7/11/1
f 16/11/1 8/11/1 15/11/1
f 20/7/1 10/7/1 9/7/1
f 21/7/1 14/7/1 13/7/1
f 21/11/1 13/11/1 12/11/1
f 22/11/1 15/11/1 14/11/1
f 22/7/1 14/7/1 21/7/1
f 23/7/1 18/7/1 17/7/1
f 25/7/1 20/7/1 19/7/1
f 26/11/1 11/11/1 10/11/1
f 26/7/1 20/7/1 25/7/1
f 26/7/1 10/7/1 20/7/1
f 27/7/1 24/7/1 23/7/1
f 27/7/1 23/7/1 17/7/1
f 27/11/1 17/11/1 16/11/1
f 28/7/1 24/7/1 27/7/1
f 29/11/1 11/11/1 26/11/1
f 29/4/1 26/4/1 25/4/1
f 30/9/1 12/9/1 11/9/1
f 30/11/1 11/11/1 29/11/1
f 31/11/1 21/11/1 12/11/1
f 31/9/1 12/9/1 30/9/1
f 32/4/1 22/4/1 21/4/1
f 32/11/1 21/11/1 31/11/1
f 33/11/1 15/11/1 22/11/1
f 33/4/1 22/4/1 32/4/1
f 34/9/1 16/9/1 15/9/1
f 34/11/1 15/11/1 33/11/1
f 35/11/1 27/11/1 16/11/1
f 35/9/1 16/9/1 34/9/1
f 36/4/1 28/4/1 27/4/1
f 36/11/1 27/11/1 35/11/1
f 37/4/1 29/4/1 25/4/1
f 37/4/1 30/4/1 29/4/1
f 38/4/1 30/4/1 37/4/1
f 39/11/1 31/11/1 30/11/1
f 39/4/1 30/4/1 38/4/1
f 40/4/1 32/4/1 31/4/1
f 40/11/1 31/11/1 39/11/1
f 40/4/1 33/4/1 32/4/1
f 40/4/1 34/4/1 33/4/1
f 41/4/1 34/4/1 40/4/1
f 42/4/1 34/4/1 41/4/1
f 43/11/1 35/11/1 34/11/1
f 43/4/1 34/4/1 42/4/1
f 44/4/1 36/4/1 35/4/1
f 44/11/1 35/11/1 43/11/1
f 45/4/1 28/4/1 36/4/1
f 45/4/1 36/4/1 44/4/1
f 46/4/1 28/4/1 45/4/1
f 47/4/1 39/4/1 38/4/1
f 47/9/1 42/9/1 41/9/1
f 47/4/1 40/4/1 39/4/1
f 47/4/1 41/4/1 40/4/1
f 48/4/1 44/4/1 43/4/1
f 48/9/1 42/9/1 47/9/1
f 48/4/1 43/4/1 42/4/1
f 48/4/1 45/4/1 44/4/1
f 49/4/1 45/4/1 48/4/1
f 50/4/1 45/4/1 49/4/1
f 51/5/1 46/5/1 45/5/1
f 51/4/1 45/4/1 50/4/1
f 52/5/1 46/5/1 51/5/1
f 53/3/1 38/3/1 37/3/1
f 54/4/1 47/4/1 38/4/1
f 54/3/1 38/3/1 53/3/1
f 54/4/1 48/4/1 47/4/1
f 54/4/1 49/4/1 48/4/1
f 55/4/1 49/4/1 54/4/1
f 56/4/1 49/4/1 55/4/1
f 57/4/1 49/4/1 56/4/1
f 58/4/1 49/4/1 57/4/1
f 59/4/1 49/4/1 58/4/1
f 60/4/1 52/4/1 51/4/1
f 60/4/1 51/4/1 50/4/1
f 61/4/1 52/4/1 60/4/1
f 62/12/1 59/12/1 58/12/1
f 64/12/1 57/12/1 56/12/1
f 64/6/1 56/6/1 55/6/1
f 65/6/1 58/6/1 57/6/1
f 65/12/1 57/12/1 64/12/1
f 66/12/1 62/12/1 58/12/1
f 66/6/1 58/6/1 65/6/1
f 67/6/1 63/6/1 62/6/1
f 67/12/1 62/12/1 66/12/1
f 68/6/1 64/6/1 55/6/1
f 68/6/1 66/6/1 65/6/1
f 68/6/1 67/6/1 66/6/1
f 68/6/1 65/6/1 64/6/1
f 69/6/1 63/6/1 67/6/1
f 69/6/1 67/6/1 68/6/1
f 72/1/1 71/1/1 70/1/1
f 73/1/1 71/1/1 72/1/1
f 78/11/1 75/11/1 74/11/1
f 79/11/1 75/11/1 78/11/1
f 80/11/1 77/11/1 76/11/1
f 81/11/1 77/11/1 80/11/1
f 82/11/2 83/11/2 86/11/2
f 86/11/2 83/11/2 87/11/2
f 84/11/2 85/11/2 88/11/2
f 88/11/2 85/11/2 89/11/2
f 90/1/2 91/1/2 92/1/2
f 92/1/2 91/1/2 93/1/2
f 94/11/2 95/11/2 100/11/2
f 100/11/2 95/11/2 101/11/2
f 96/11/2 97/11/2 104/11/2
f 104/11/2 97/11/2 105/11/2
f 98/7/2 99/7/2 109/7/2
f 102/7/2 103/7/2 110/7/2
f 101/11/2 102/11/2 110/11/2
f 103/11/2 104/11/2 111/11/2
f 110/7/2 103/7/2 111/7/2
f 106/7/2 107/7/2 112/7/2
f 108/7/2 109/7/2 114/7/2
f 99/11/2 100/11/2 115/11/2
f 114/7/2 109/7/2 115/7/2
f 109/7/2 99/7/2 115/7/2
f 112/7/2 113/7/2 116/7/2
f 106/7/2 112/7/2 116/7/2
f 105/11/2 106/11/2 116/11/2
f 116/7/2 113/7/2 117/7/2
f 115/11/2 100/11/2 118/11/2
f 114/4/2 115/4/2 118/4/2
f 100/9/2 101/9/2 119/9/2
f 118/11/2 100/11/2 119/11/2
f 101/11/2 110/11/2 120/11/2
f 119/9/2 101/9/2 120/9/2
f 110/4/2 111/4/2 121/4/2
f 120/11/2 110/11/2 121/11/2
f 111/11/2 104/11/2 122/11/2
f 121/4/2 111/4/2 122/4/2
f 104/9/2 105/9/2 123/9/2
f 122/11/2 104/11/2 123/11/2
f 105/11/2 116/11/2 124/11/2
f 123/9/2 105/9/2 124/9/2
f 116/4/2 117/4/2 125/4/2
f 124/11/2 116/11/2 125/11/2
f 114/4/2 118/4/2 126/4/2
f 118/4/2 119/4/2 126/4/2
f 126/4/2 119/4/2 127/4/2
f 119/11/2 120/11/2 128/11/2
f 127/4/2 119/4/2 128/4/2
f 120/4/2 121/4/2 129/4/2
f 128/11/2 120/11/2 129/11/2
f 121/4/2 122/4/2 129/4/2
f 122/4/2 123/4/2 129/4/2
f 123/11/2 124/11/2 130/11/2
f 129/4/2 123/4/2 130/4/2
f 124/4/2 125/4/2 131/4/2
f 130/11/2 124/11/2 131/11/2
f 125/4/2 117/4/2 132/4/2
f 131/4/2 125/4/2 132/4/2
f 132/4/2 117/4/2 133/4/2
f 127/4/2 128/4/2 134/4/2
f 130/4/2 131/4/2 134/4/2
f 128/4/2 129/4/2 134/4/2
f 131/4/2 132/4/2 134/4/2
f 129/4/2 130/4/2 134/4/2
f 134/4/2 132/4/2 135/4/2
f 132/5/2 133/5/2 136/5/2
f 135/4/2 132/4/2 136/4/2
f 136/5/2 133/5/2 137/5/2
f 126/3/2 127/3/2 138/3/2
f 127/4/2 134/4/2 139/4/2
f 138/3/2 127/3/2 139/3/2
f 139/4/2 134/4/2 140/4/2
f 140/4/2 134/4/2 141/4/2
f 141/4/2 134/4/2 142/4/2
f 142/4/2 134/4/2 143/4/2
f 143/4/2 134/4/2 144/4/2
f 136/4/2 137/4/2 145/4/2
f 135/4/2 136/4/2 145/4/2
f 145/4/2 137/4/2 146/4/2
f 143/12/2 144/12/2 147/12/2
f 141/12/2 142/12/2 149/12/2
f 140/6/2 141/6/2 149/6/2
f 142/6/2 143/6/2 150/6/2
f 149/12/2 142/12/2 150/12/2
f 143/12/2 147/12/2 151/12/2
f 150/6/2 143/6/2 151/6/2
f 147/6/2 148/6/2 152/6/2
f 151/12/2 147/12/2 152/12/2
f 140/6/2 149/6/2 153/6/2
f 150/6/2 151/6/2 153/6/2
f 151/6/2 152/6/2 153/6/2
f 149/6/2 150/6/2 153/6/2
f 152/6/2 148/6/2 154/6/2
f 153/6/2 152/6/2 154/6/2
f 155/7/2 156/7/2 157/7/2
f 157/7/2 156/7/2 158/7/2
f 163/4/3 161/4/3 160/4/3
f 163/3/3 162/3/3 161/3/3
f 164/3/3 162/3/3 163/3/3
f 165/4/3 163/4/3 160/4/3
f 165/4/3 164/4/3 163/4/3
f 166/4/3 164/4/3 165/4/3
f 167/4/3 165/4/3 160/4/3
f 167/2/3 166/2/3 165/2/3
f 168/4/3 164/4/3 166/4/3
f 168/2/3 166/2/3 167/2/3
f 169/4/3 168/4/3 167/4/3
f 170/4/3 164/4/3 168/4/3
f 170/4/3 168/4/3 169/4/3
f 171/7/3 160/7/3 159/7/3
f 172/4/3 167/4/3 160/4/3
f 172/7/3 160/7/3 171/7/3
f 172/4/3 169/4/3 167/4/3
f 173/3/3 170/3/3 169/3/3
f 173/4/3 169/4/3 172/4/3
f 174/3/3 170/3/3 173/3/3
f 177/7/3 176/7/3 175/7/3
f 178/7/3 176/7/3 177/7/3
f 181/11/3 180/11/3 179/11/3
f 182/11/3 180/11/3 181/11/3
f 185/11/3 184/11/3 183/11/3
f 186/11/3 184/11/3 185/11/3
f 189/6/3 188/6/3 187/6/3
f 190/6/3 188/6/3 189/6/3
f 191/6/3 189/6/3 187/6/3
f 191/12/3 190/12/3 189/12/3
f 192/6/3 188/6/3 190/6/3
f 192/12/3 190/12/3 191/12/3
f 193/6/3 191/6/3 187/6/3
f 193/6/3 192/6/3 191/6/3
f 194/6/3 188/6/3 192/6/3
f 194/6/3 192/6/3 193/6/3
f 197/5/3 196/5/3 195/5/3
f 198/5/3 196/5/3 197/5/3
f 201/7/3 200/7/3 199/7/3
f 202/7/3 200/7/3 201/7/3
f 203/7/3 200/7/3 202/7/3
f 207/7/3 205/7/3 204/7/3
f 207/7/3 206/7/3 205/7/3
f 208/7/3 206/7/3 207/7/3
f 211/11/3 210/11/3 209/11/3
f 212/11/3 210/11/3 211/11/3
f 215/11/3 214/11/3 213/11/3
f 216/11/3 214/11/3 215/11/3
f 217/11/4 218/11/4 219/11/4
f 219/11/4 218/11/4 220/11/4
f 221/11/4 222/11/4 223/11/4
f 223/11/4 222/11/4 224/11/4
f 225/5/4 226/5/4 227/5/4
f 227/5/4 226/5/4 228/5/4
f 227/1/4 228/1/4 229/1/4
f 229/1/4 228/1/4 230/1/4
f 229/5/4 230/5/4 231/5/4
f 231/5/4 230/5/4 232/5/4
f 233/7/4 234/7/4 235/7/4
f 235/7/4 234/7/4 236/7/4
f 236/7/4 234/7/4 237/7/4
f 237/6/4 238/6/4 239/6/4
f 236/6/4 237/6/4 239/6/4
f 239/6/4 238/6/4 240/6/4
f 239/12/4 240/12/4 241/12/4
f 240/6/4 238/6/4 242/6/4
f 241/12/4 240/12/4 242/12/4
f 241/6/4 242/6/4 244/6/4
f 244/6/4 242/6/4 245/6/4
f 242/6/4 238/6/4 246/6/4
f 245/6/4 242/6/4 246/6/4
f 244/7/4 245/7/4 247/7/4
f 243/7/4 244/7/4 247/7/4
f 247/7/4 245/7/4 248/7/4
f 249/11/4 250/11/4 251/11/4
f 251/11/4 250/11/4 252/11/4
f 253/11/4 254/11/4 255/11/4
f 255/11/4 254/11/4 256/11/4
f 257/7/4 258/7/4 259/7/4
f 259/7/4 258/7/4 260/7/4
f 262/4/4 263/4/4 266/4/4
f 263/5/4 264/5/4 266/5/4
f 264/4/4 265/4/4 267/4/4
f 266/5/4 264/5/4 267/5/4
f 261/7/4 262/7/4 268/7/4
f 262/4/4 266/4/4 268/4/4
f 266/4/4 267/4/4 268/4/4
f 268/4/4 267/4/4 269/4/4
f 261/7/4 268/7/4 270/7/4
f 268/11/4 269/11/4 270/11/4
f 269/4/4 267/4/4 271/4/4
f 270/11/4 269/11/4 271/11/4
f 270/4/4 271/4/4 272/4/4
f 271/4/4 267/4/4 272/4/4
f 267/4/4 265/4/4 273/4/4
f 272/4/4 267/4/4 273/4/4
f 261/7/4 270/7/4 274/7/4
f 270/4/4 272/4/4 275/4/4
f 274/7/4 270/7/4 275/7/4
f 272/5/4 273/5/4 276/5/4
f 275/4/4 272/4/4 276/4/4
f 273/4/4 265/4/4 277/4/4
f 276/5/4 273/5/4 277/5/4
f 277/4/4 265/4/4 278/4/4
f 283/11/5 280/11/5 279/11/5
f 284/11/5 280/11/5 283/11/5
f 285/11/5 282/11/5 281/11/5
f 286/11/5 282/11/5 285/11/5
f 291/11/5 288/11/5 287/11/5
f 292/11/5 288/11/5 291/11/5
f 293/11/5 290/11/5 289/11/5
f 294/11/5 290/11/5 293/11/5
f 297/7/5 296/7/5 295/7/5
f 298/7/5 296/7/5 297/7/5
f 299/7/5 297/7/5 295/7/5
f 300/5/5 298/5/5 297/5/5
f 300/7/5 297/7/5 299/7/5
f 301/7/5 296/7/5 298/7/5
f 301/5/5 298/5/5 300/5/5
f 302/7/5 296/7/5 301/7/5
f 303/11/5 300/11/5 299/11/5
f 304/5/5 301/5/5 300/5/5
f 304/11/5 300/11/5 303/11/5
f 305/11/5 302/11/5 301/11/5
f 305/5/5 301/5/5 304/5/5
f 306/11/5 302/11/5 305/11/5
f 308/5/5 305/5/5 304/5/5
f 309/5/5 305/5/5 308/5/5
f 311/11/5 308/11/5 307/11/5
f 312/5/5 309/5/5 308/5/5
f 312/11/5 308/11/5 311/11/5
f 313/11/5 310/11/5 309/11/5
f 313/5/5 309/5/5 312/5/5
f 314/11/5 310/11/5 313/11/5
f 315/7/5 312/7/5 311/7/5
f 316/5/5 313/5/5 312/5/5
f 316/7/5 312/7/5 315/7/5
f 317/7/5 314/7/5 313/7/5
f 317/5/5 313/5/5 316/5/5
f 318/7/5 314/7/5 317/7/5
f 319/11/5 316/11/5 315/11/5
f 320/5/5 317/5/5 316/5/5
f 320/11/5 316/11/5 319/11/5
f 321/11/5 318/11/5 317/11/5
f 321/5/5 317/5/5 320/5/5
f 322/11/5 318/11/5 321/11/5
f 324/5/5 321/5/5 320/5/5
f 325/5/5 321/5/5 324/5/5
f 327/11/5 324/11/5 323/11/5
f 328/5/5 325/5/5 324/5/5
f 328/11/5 324/11/5 327/11/5
f 329/11/5 326/11/5 325/11/5
f 329/5/5 325/5/5 328/5/5
f 330/11/5 326/11/5 329/11/5
f 331/7/5 328/7/5 327/7/5
f 331/5/5 329/5/5 328/5/5
f 332/7/5 330/7/5 329/7/5
f 332/5/5 329/5/5 331/5/5
f 333/7/5 331/7/5 327/7/5
f 333/7/5 332/7/5 331/7/5
f 334/7/5 330/7/5 332/7/5
f 334/7/5 332/7/5 333/7/5
f 337/7/5 336/7/5 335/7/5
f 338/7/5 336/7/5 337/7/5
f 341/7/5 340/7/5 339/7/5
f 342/7/5 340/7/5 341/7/5
f 347/7/5 344/7/5 343/7/5
f 348/7/5 344/7/5 347/7/5
f 349/7/5 346/7/5 345/7/5
f 350/7/5 346/7/5 349/7/5
f 355/12/5 352/12/5 351/12/5
f 355/12/5 354/12/5 353/12/5
f 355/12/5 353/12/5 352/12/5
f 356/12/5 354/12/5 355/12/5
f 357/5/6 358/5/6 361/5/6
f 359/5/6 360/5/6 361/5/6
f 358/5/6 359/5/6 361/5/6
f 361/5/6 360/5/6 362/5/6
f 363/3/6 364/3/6 367/3/6
f 364/4/6 365/4/6 368/4/6
f 367/3/6 364/3/6 368/3/6
f 365/3/6 366/3/6 369/3/6
f 368/4/6 365/4/6 369/4/6
f 369/3/6 366/3/6 370/3/6
f 367/4/6 368/4/6 371/4/6
f 368/4/6 369/4/6 371/4/6
f 369/4/6 370/4/6 371/4/6
f 371/4/6 370/4/6 372/4/6
f 373/4/6 374/4/6 377/4/6
f 375/4/6 376/4/6 377/4/6
f 374/4/6 375/4/6 377/4/6
f 377/4/6 376/4/6 378/4/6
f 379/7/6 380/7/6 383/7/6
f 383/7/6 380/7/6 384/7/6
f 381/7/6 382/7/6 385/7/6
f 385/7/6 382/7/6 386/7/6
f 387/6/6 388/6/6 389/6/6
f 389/6/6 388/6/6 390/6/6
